<svg id="禁止マーク_画像" data-name="禁止マーク 画像" xmlns="http://www.w3.org/2000/svg" viewBox="0 0 1984 1984"><defs><style>.cls-1{fill:#fb3d3d;}.cls-2{fill:#b7b7b7;}.cls-3{fill:#101010;}.cls-4{fill:#454343;}.cls-5{fill:#dfdfde;}</style></defs><title>アートボード 1</title><path class="cls-1" d="M1043.27,1986.54h-16.51c-1-1.48-2.46-1.53-4-1.53H966.13c-1.5,0-3,0-3.92,1.53H945.69c-1.27-2.29-3.51-1.42-5.36-1.54-60.46-3.68-120.23-12.1-179.11-26.37a991.4,991.4,0,0,1-518.64-317.76c-31.46-36.81-60.47-75.44-85.8-116.93-29.21-47.84-55.67-97-77.21-148.73A993.6,993.6,0,0,1,30,1221.42,1005.75,1005.75,0,0,1,3.53,1015.11c-1.23-49.27,2-98.34,8.1-147.3,10.9-87,33.32-170.91,66.43-252a967.06,967.06,0,0,1,62.4-125.24,979.92,979.92,0,0,1,103.46-144A1008.54,1008.54,0,0,1,358.07,234.07,976.91,976.91,0,0,1,650.46,64.28,1037.06,1037.06,0,0,1,770,28.56,996.93,996.93,0,0,1,981.67,2.77c45.8-.74,91.39,2.38,136.87,8A987.61,987.61,0,0,1,1656.7,256.64a999.84,999.84,0,0,1,128.92,140.64,980.28,980.28,0,0,1,173,368.12c14.49,61.48,22.79,123.75,26,186.77l.08,82.77a1081.36,1081.36,0,0,1-15,134.64,978.27,978.27,0,0,1-68.94,225.71,1016.52,1016.52,0,0,1-97,171.8c-48,68.51-104.27,129.53-167.91,183.68a975.58,975.58,0,0,1-177.38,120.31,998.39,998.39,0,0,1-172.32,71.37c-73.37,22.62-148.33,36.19-224.84,41.72C1055.32,1984.6,1049,1983.33,1043.27,1986.54ZM671,1176c6.63-3.4,10.83-9.56,15.91-14.58,28.69-28.39,56.91-57.24,85.43-85.81Q825,1022.93,877.8,970.41,956.06,892.28,1034.22,814c7.68-7.71,16.13-14.73,22.56-23.65,10.91-10.63,22.16-20.94,32.22-32.42,15.65-15.41,31.38-30.73,46.93-46.25q56.47-56.4,112.81-112.94,52.2-52.18,104.49-104.27Q1402,445.78,1450.77,397c9.66-9.6,19.75-18.77,29.74-28.23-30.93-26.58-92.34-64.51-141.8-88.41-76.37-36.89-156.59-60.46-240.66-71.72a789.4,789.4,0,0,0-619,183.56A801,801,0,0,0,335.23,554.33c-6.34,9.43-13.63,18.42-17.58,29.34-4.23,3.1-5.69,8-7.84,12.37a22.25,22.25,0,0,0-2.31,2.86c-20.67,36.23-38.81,73.64-53.37,112.76l-.42,1.9a27,27,0,0,0-1.72,3.28c-12.73,35.26-24.06,70.92-31.24,107.79q-2.1,9.35-4.19,18.7c-41.62,233.85,9.45,445.5,151.11,636.38,19.85-19.81,38.62-38.47,57.3-57.22,14.78-14.83,29.43-29.78,44.14-44.68,1.14-1,2.36-1.83,3.41-2.87q56.48-56.55,112.94-113.13c11.52-11.39,23.13-22.7,34.56-34.18Q645.63,1201.92,671,1176Zm668-386a24.81,24.81,0,0,0-2.94,2.21q-74.2,74.1-148.38,148.24-114.23,114.21-228.42,228.46-70.46,70.44-141,140.81c-14.8,14.82-29.32,29.92-44,44.89l-40.15,40.43c-2.58,2.37-5.27,4.61-7.7,7.12-43.26,44.61-88.7,87-131.05,132.59-18.7,20.11-38.74,39-58.34,58.26-9.35,9.18-19.09,18-28.81,27.09,275.73,221.61,747.21,250.31,1061.92-81.93,140-147.74,212.36-326.32,215.92-530.75,3.22-185.2-53.1-351.21-165-498.77a19.93,19.93,0,0,0-2.66,1.75q-54.36,54.32-108.68,108.65-47.71,47.69-95.43,95.39c-14.28,14.31-28.39,28.79-42.57,43.2C1360.14,767.73,1349.88,779.18,1339,790Z"/><path class="cls-2" d="M774.31,1354.62c14.65-15,29.17-30.07,44-44.89q70.41-70.49,141-140.81,114.24-114.2,228.42-228.46,74.16-74.16,148.38-148.24A24.81,24.81,0,0,1,1339,790l40.53.07c.1,2,.27,4,.27,6q0,276.12,0,552.26c0,2.48-.41,5-.62,7.43-2.74-.11-5.48-.32-8.22-.32q-293.54,0-587.05-.06C780.71,1355.37,777.4,1356.15,774.31,1354.62Z"/><path class="cls-3" d="M752.07,757c2.6,1.33,5.4.67,8.1.67q160.3.06,320.6,0c2.74,0,5.48.16,8.22.24-10,11.48-21.3,21.79-32.21,32.42-3.49-.07-7-.2-10.47-.2q-187.66-.07-375.34-.12c-2.23-2.42-5.16-1.43-7.79-1.44-22.74-.08-45.49,0-68.24,0-9.7,0-9.71,0-9.71,9.82q0,227.21,0,454.42c0,3,.14,6,.21,9Q529,1318.38,472.52,1374.94c-1,1-2.27,1.91-3.41,2.87C443.6,1362,431.35,1339,431.42,1309q.24-115.2.05-230.41v-6.51l-37.12,34.28c8.72-24.45,16.67-48.85,26.15-72.65,8.17-20.53,12.68-41.21,11.16-63.41-1-14.34-.19-28.81-.19-44.22l-187.2,87.31-.6-1.4L396.53,868.32l-180-25q2.08-9.36,4.19-18.7l154.57-28.15c-41.49-28.28-81.55-55.6-121.61-82.92l.42-1.9,149.46,9.56C394.39,708.91,386.23,698,378,687q-34.09-45.51-68.22-91c2.15-4.42,3.61-9.27,7.84-12.37L478.3,682c7.1-37,14-72.9,21.33-111l35.6,101.28,142.19-147c-10.79,55.18-21.25,108.61-32,163.36L806.2,656.48l.62,1-131.69,90.4a15.77,15.77,0,0,1-11.59,3.32c-4-.29-8-.08-11.94,0-2.2,0-3.83,1.07-4.27,3.39a5.28,5.28,0,0,0,2.09,5.25c1.66,1.44,3.63,1.44,5.63,1.44q44.06,0,88.1,0C746.77,761.32,750.05,760.41,752.07,757ZM621.9,712.22c8.05-41.38,16-82.1,23.92-122.83l-2.52-1.74c-19.73,18.9-38.44,38.83-57.36,58.57-19.26,20.09-38.82,39.91-58.35,60-6.48-18.12-12.64-35.35-18.78-52.58-.61-1.71.29-4.34-2.77-4.47-3.56-.15-2.78,2.61-3.19,4.71-3.69,18.91-7.45,37.8-11.32,57.41-41.53-24.12-81.23-50.7-123.92-72.89,22.58,36.13,49.37,68.83,74.3,104L323.29,735c-.47.71-.93,1.42-1.4,2.12,15.87,12.2,32.77,23,49.37,34.27,16.88,11.43,33.57,23.14,51.1,35.26L290.6,831l.21,3.63,142.33,19.9c.46-14-1.22-27.1,2.27-39.76C444.2,782.9,474.3,759,508,759.43c37.77.53,75.55.09,113.33.18a14.58,14.58,0,0,0,9-2.56c25.65-17.69,51.49-35.1,77-53,3.26-2.28,8.43-3.73,8.71-10.55ZM515.83,1072.33c0-20.51-.09-41,0-61.52,0-5.24-1.7-8.89-7.07-9.79-5-.84-8.58,3.64-8.59,10.61,0,40.77,0,81.53-.06,122.3,0,5.93,1.59,11.31,8,11.34,6.63,0,7.76-5.56,7.72-11.42C515.73,1113.35,515.82,1092.84,515.83,1072.33Zm-167.14-130c3.22-.74,6.52-1,9.31-2.23,23.41-10.78,46.7-21.82,70.09-32.63,3.6-1.66,5.32-3.74,5.24-7.92-.24-12.24-.08-24.49-.08-36.74C426.72,863.22,349.8,935.27,348.69,942.33Zm159.24,229.44a13.24,13.24,0,1,0,.11,26.48,13.25,13.25,0,0,0-.11-26.48Z"/><path class="cls-3" d="M774.31,1354.62c3.09,1.53,6.4.75,9.59.75q293.52.08,587.05.06c2.74,0,5.48.21,8.22.32,2,.18,3.94.51,5.92.52,46,0,92-.11,138,.16,6.6,0,8.44-1.77,8.43-8.41q-.26-275.61,0-551.21c0-6.69-1.92-8.42-8.46-8.38-45.5.27-91,.13-136.49.18-2.4,0-5.07-.84-7,1.47L1339,790c10.88-10.83,21.14-22.28,32.77-32.36q121.18,0,242.37.05c29.08,0,51.63,12,67.06,36.63,7.87,12.54,11,26.49,11,41.41-.18,73.55-.08,147.1-.08,220.64v252.17c0,47.33-32.19,79.46-79.6,79.46H865.83c-.24,7.22-4.9,7.93-10.84,7.83-17.51-.27-35-.16-52.54,0-5.42,0-10.39-.17-10.36-7.54H773.94c-1,6.3-5.34,7.55-11.3,7.24-9.48-.49-19-.33-28.49-.45Q754.23,1374.83,774.31,1354.62Zm833.05-333.27c-29.6.12-51.61,22.88-51.78,51.36-.18,28.2,20.92,51.76,51.86,52,28.84.26,51.45-22.52,51.47-51.35C1658.93,1044,1636.44,1021.33,1607.36,1021.35Z"/><path class="cls-2" d="M671,790.06q187.66.06,375.34.12c3.49,0,7,.13,10.47.2-6.43,8.92-14.88,15.94-22.56,23.65q-78,78.36-156.42,156.38Q825.09,1023,772.37,1075.64c-28.52,28.57-56.74,57.42-85.43,85.81-5.08,5-9.28,11.18-15.91,14.58-.17-2.48-.5-5-.5-7.44q0-185.53,0-371.08C670.52,795,670.82,792.55,671,790.06Z"/><path class="cls-4" d="M671,790.06c-.15,2.49-.45,5-.45,7.45q0,185.54,0,371.08c0,2.48.33,5,.5,7.44q-25.49,25.82-51,51.6c-11.43,11.48-23,22.79-34.57,34.18-.07-3-.21-6-.21-9q0-227.21,0-454.42c0-9.81,0-9.82,9.71-9.82,22.75,0,45.5,0,68.24,0C665.81,788.63,668.74,787.64,671,790.06Zm-51.15,34.23c-2.47-3.43-2.23-7.33-3.08-10.9-1.83-7.65-6.87-5.78-12.15-4.59-6.37,1.44-4.56,5.08-3.07,9,1.41,3.7,2.71,7.44,4,11.19,3.22,9.57,3.26,9.73,13,6.1,4.86-1.82,9.27-2.29,9.79,4,.64,7.6,4.89,8.79,10.49,6.61,5.89-2.3,8.26.22,9.82,5.13,1.14,3.6,3,5.73,7.34,3.63,1.49-7.06-.28-13.92-2-21.74-12.54,5.36-15.5-2.27-16.06-11.93C631,820.47,625.48,823,619.82,824.29Z"/><path class="cls-4" d="M752.07,757c-2,3.4-5.3,4.31-8.92,4.31q-44,0-88.1,0c-2,0-4,0-5.63-1.44a5.28,5.28,0,0,1-2.09-5.25c.44-2.32,2.07-3.34,4.27-3.39,4-.09,8-.3,11.94,0a15.77,15.77,0,0,0,11.59-3.32c.83,4.12,4,1.78,5.89,1.8,20.87.2,41.74.17,62.61.09C748.66,749.8,752.8,750.44,752.07,757Z"/><path class="cls-4" d="M1379.53,790.08c2-2.31,4.63-1.47,7-1.47,45.49-.05,91,.09,136.49-.18,6.54,0,8.47,1.69,8.46,8.38q-.26,275.61,0,551.21c0,6.64-1.83,8.45-8.43,8.41-46-.27-92-.14-138-.16-2,0-3.95-.34-5.92-.52.21-2.48.62-5,.62-7.43q0-276.13,0-552.26C1379.8,794.06,1379.63,792.07,1379.53,790.08Zm37.35,540.32,1.79,1.78c1.13,1.26,2.65,1.23,4.15,1.23h65.9c1.75,0,3.52.07,4.89-1.32V1254a443.6,443.6,0,0,0-75-.07l-1.66,1.6c-.28.4-.8.8-.81,1.22-.72,24.16-.66,48.33,0,72.49C1416.07,1329.6,1416.59,1330,1416.88,1330.4Zm40.75-304.64c-25.51.07-48.22,22.12-47.4,47.35,1,29.15,23.22,48.36,47.46,48.1,24.92-.26,47-18.19,47.52-48.6C1505.62,1047,1483.39,1025.68,1457.63,1025.76Z"/><path class="cls-5" d="M621.9,712.22,716,693.53c-.28,6.82-5.45,8.27-8.71,10.55-25.52,17.87-51.36,35.28-77,53a14.58,14.58,0,0,1-9,2.56c-37.78-.09-75.56.35-113.33-.18-33.66-.47-63.76,23.47-72.55,55.38-3.49,12.66-1.81,25.76-2.27,39.76l-142.33-19.9L290.6,831l131.76-24.39c-17.53-12.12-34.22-23.83-51.1-35.26-16.6-11.24-33.5-22.07-49.37-34.27.47-.7.93-1.41,1.4-2.12l118.62,7.39c-24.93-35.2-51.72-67.9-74.3-104,42.69,22.19,82.39,48.77,123.92,72.89,3.87-19.61,7.63-38.5,11.32-57.41.41-2.1-.37-4.86,3.19-4.71,3.06.13,2.16,2.76,2.77,4.47,6.14,17.23,12.3,34.46,18.78,52.58,19.53-20,39.09-39.87,58.35-60,18.92-19.74,37.63-39.67,57.36-58.57l2.52,1.74C637.89,630.12,630,670.84,621.9,712.22Z"/><path class="cls-2" d="M515.82,1072.33c0,20.51-.09,41,.06,61.52,0,5.86-1.09,11.44-7.72,11.42-6.41,0-8-5.41-8-11.34.09-40.77,0-81.53.06-122.3,0-7,3.61-11.45,8.59-10.61,5.37.9,7.11,4.55,7.07,9.79C515.74,1031.31,515.83,1051.82,515.82,1072.33Z"/><path class="cls-5" d="M348.69,942.33c1.11-7.06,78-79.11,84.56-79.52,0,12.25-.16,24.5.08,36.74.08,4.18-1.64,6.26-5.24,7.92C404.7,918.28,381.41,929.32,358,940.1,355.21,941.38,351.91,941.59,348.69,942.33Z"/><path class="cls-2" d="M507.93,1171.77a13.25,13.25,0,0,1,.11,26.48,13.24,13.24,0,1,1-.11-26.48Z"/><path class="cls-2" d="M1607.36,1021.35c29.08,0,51.57,22.68,51.55,52.05,0,28.83-22.63,51.61-51.47,51.35-30.94-.28-52-23.84-51.86-52C1555.75,1044.23,1577.76,1021.47,1607.36,1021.35Z"/><path class="cls-5" d="M619.82,824.29c5.66-1.26,11.15-3.82,18.06-3.47.56,9.66,3.52,17.29,16.06,11.93,1.71,7.82,3.48,14.68,2,21.74-4.37,2.1-6.2,0-7.34-3.63-1.56-4.91-3.93-7.43-9.82-5.13-5.6,2.18-9.85,1-10.49-6.61-.52-6.34-4.93-5.87-9.79-4-9.73,3.63-9.77,3.47-13-6.1-1.27-3.75-2.57-7.49-4-11.19-1.49-3.9-3.3-7.54,3.07-9,5.28-1.19,10.32-3.06,12.15,4.59C617.59,817,617.35,820.86,619.82,824.29Z"/><path class="cls-2" d="M1416.9,1255.48l1.66-1.6,75,.07v78.15l-74.94.08-1.79-1.78Q1416.88,1292.93,1416.9,1255.48Z"/><path class="cls-2" d="M1457.63,1025.76c25.76-.08,48,21.22,47.58,46.85-.49,30.41-22.6,48.34-47.52,48.6-24.24.26-46.51-19-47.46-48.1C1409.41,1047.88,1432.12,1025.83,1457.63,1025.76Zm-.35,84.37c21.18.17,37.86-16.14,37.86-37a36.89,36.89,0,0,0-36.4-37c-21.14-.28-38.21,16-38.45,36.66C1420.06,1093,1436.9,1110,1457.28,1110.13Z"/><path class="cls-3" d="M1493.61,1254l-75-.07A443.6,443.6,0,0,1,1493.61,1254Z"/><path class="cls-3" d="M1416.9,1255.48q0,37.45,0,74.92c-.29-.4-.81-.8-.82-1.21-.63-24.16-.69-48.33,0-72.49C1416.1,1256.28,1416.62,1255.88,1416.9,1255.48Z"/><path class="cls-3" d="M1418.67,1332.18l74.94-.08c-1.37,1.39-3.14,1.32-4.89,1.32h-65.9C1421.32,1333.41,1419.8,1333.44,1418.67,1332.18Z"/><path class="cls-3" d="M1457.28,1110.13c-20.38-.17-37.22-17.18-37-37.37.24-20.67,17.31-36.94,38.45-36.66a36.89,36.89,0,0,1,36.4,37C1495.14,1094,1478.46,1110.3,1457.28,1110.13Zm.62-69.55c-18.7,0-32.65,13.62-32.91,32.16s13.73,32.8,32.16,32.85c19.63.05,33.55-13.23,33.69-32.16S1477.13,1040.59,1457.9,1040.58Z"/><path class="cls-5" d="M1457.9,1040.58c19.23,0,33.09,13.83,32.94,32.85s-14.06,32.21-33.69,32.16c-18.43,0-32.42-14.34-32.16-32.85S1439.2,1040.57,1457.9,1040.58Z"/></svg>