<?xml version="1.0" encoding="UTF-8" standalone="no"?>
<svg
   height="446.85379pt"
   version="1.1"
   viewBox="0 0 701.87457 446.85379"
   width="701.87457pt"
   id="svg625"
   xmlns:xlink="http://www.w3.org/1999/xlink"
   xmlns="http://www.w3.org/2000/svg"
   xmlns:svg="http://www.w3.org/2000/svg">
  <defs
     id="defs629">
    <linearGradient
       id="linearGradient898">
      <stop
         style="stop-color:#c000ff;stop-opacity:1;"
         offset="0"
         id="stop894" />
      <stop
         style="stop-color:#00ffff;stop-opacity:1"
         offset="1"
         id="stop896" />
    </linearGradient>
    <linearGradient
       xlink:href="#linearGradient898"
       id="linearGradient900"
       x1="60.725769"
       y1="64.088905"
       x2="692.21008"
       y2="494.91461"
       gradientUnits="userSpaceOnUse"
       gradientTransform="matrix(1.0219185,0,0,0.91730663,-6.4288795,-5.8356395)" />
  </defs>
  <rect
     style="fill:url(#linearGradient900);fill-opacity:1;stroke:#b62e00;stroke-width:0.714139"
     id="rect891"
     width="716.50482"
     height="458.0094"
     x="-4.3642707"
     y="-5.5446682" />
  <path
     d="m 418.83011,50.518063 c 2.71159,-2.307924 3.08893,-6.081335 4.08055,-9.284346 1.04427,3.29954 1.58834,7.213357 4.52809,9.451078 2.12364,1.790176 4.88788,2.395677 7.5205,3.027504 -2.82567,1.079371 -5.8444,1.895481 -8.25763,3.782186 -2.05344,2.3518 -2.60629,5.554812 -3.64178,8.415584 -1.11447,-3.580353 -2.02711,-7.85396 -5.71277,-9.696789 -1.62344,-1.412835 -4.29116,-0.868762 -5.66012,-2.457104 2.42201,-0.982842 5.19503,-1.307531 7.14316,-3.238113 z"
     fill="#ff7861"
     opacity="1"
     stroke="#ff7861"
     stroke-width="0.219384"
     id="path527" />
  <path
     d="m 279.09105,54.554735 c 2.52731,-0.210609 4.04545,-2.079764 4.51932,-4.466666 0.70203,2.69404 2.89587,4.378912 5.65134,4.484216 -2.67649,0.210609 -5.00197,2.132416 -5.3091,4.852782 -0.54408,-2.474655 -2.45711,-4.220955 -4.86156,-4.870332 z"
     fill="#ff7160"
     opacity="1"
     stroke="#ff7160"
     stroke-width="0.219384"
     id="path529" />
  <path
     d="m 352.02318,56.625723 c 3.27322,3.03628 4.98442,7.388865 7.36254,11.118399 6.76582,12.583888 11.83798,26.018988 15.822,39.726128 -15.03221,0.009 -30.06443,-0.0351 -45.09665,0.0175 3.74709,-13.7949 8.83681,-27.25632 15.54997,-39.884084 1.95691,-3.75586 4.32626,-7.26601 6.36214,-10.977993 z"
     fill="#2f404a"
     opacity="1"
     stroke="#2f404a"
     stroke-width="0.219384"
     id="path531" />
  <path
     d="m 244.34057,76.1246 c 2.08853,-2.325469 2.53608,-5.554807 3.29076,-8.485782 1.05305,3.738309 1.95691,8.459462 5.86195,10.267192 1.87793,1.00039 3.96647,1.53569 5.99358,2.15874 -3.05383,0.86876 -6.44112,1.66732 -8.60864,4.18585 -1.69365,2.29037 -2.32547,5.12482 -2.96608,7.85396 -0.96529,-3.05383 -1.60589,-6.51133 -4.08055,-8.77537 -2.23772,-1.82528 -5.09849,-2.59751 -7.83641,-3.30832 3.01873,-0.62305 6.19542,-1.53569 8.34539,-3.89627 z"
     fill="#ff7a61"
     opacity="1"
     stroke="#ff7a61"
     stroke-width="0.219384"
     id="path533" />
  <path
     d="m 286.79583,92.9821 c 15.12874,-14.54957 35.39108,-23.421475 56.20627,-25.510014 0.66693,0.0351 1.99201,0.09653 2.65894,0.13163 -6.71316,12.627764 -11.80288,26.089184 -15.54997,39.884084 -4.94053,17.55076 -7.6258,35.74211 -7.63457,53.97733 0.41244,12.49614 1.7112,24.96594 3.85239,37.29535 -9.70557,12.34695 -17.34892,27.32651 -17.38402,43.35912 -9.06496,-4.52809 -17.40157,-10.59188 -24.44819,-17.87544 -23.40393,-22.47373 -32.53909,-58.26848 -23.31617,-89.30698 4.50177,-15.97119 13.5404,-30.59096 25.61532,-41.95508 z"
     fill="#ff9770"
     opacity="1"
     stroke="#ff9770"
     stroke-width="0.219384"
     id="path535"
     style="opacity:0.681234" />
  <path
     d="m 359.38572,67.744122 c 11.6537,0.131631 23.05291,3.73831 33.50438,8.731498 15.29548,7.38886 28.62527,18.88461 37.94472,33.1095 11.6537,17.41034 16.77852,39.01532 14.45304,59.82173 -2.50098,25.60654 -16.58546,49.76515 -37.49717,64.72716 -3.72954,2.4571 -7.22214,5.67767 -11.63615,6.80091 -0.0702,-1.97446 -0.1404,-3.94891 -0.5002,-5.89705 -2.01833,-13.39999 -8.76659,-25.53634 -16.90137,-36.17209 3.29954,-16.69954 5.08095,-33.81152 3.85239,-50.82697 -1.1759,-13.72468 -3.76463,-27.30019 -7.39764,-40.56856 -3.98402,-13.70714 -9.05618,-27.14224 -15.822,-39.726128 z"
     fill="#ff7b62"
     opacity="1"
     stroke="#ff7b62"
     stroke-width="0.219384"
     id="path537"
     style="opacity:0.681234" />
  <path
     d="m 459.50397,83.5398 c 1.23733,1.79017 2.55363,3.5979 4.79135,4.29993 -1.86038,1.37773 -4.00157,2.66771 -4.52809,5.11604 -0.65815,-1.20222 -1.33386,-2.3869 -2.00956,-3.57157 -1.13202,-0.36857 -2.22017,-0.79856 -3.27322,-1.34264 2.39568,-0.58795 4.10688,-2.22894 5.01952,-4.50176 z"
     fill="#fb7b5f"
     opacity="1"
     stroke="#fb7b5f"
     stroke-width="0.219384"
     id="path539" />
  <path
     d="m 322.4765,161.46513 c 0.009,-18.23522 2.69404,-36.42657 7.63457,-53.97733 15.03222,-0.0526 30.06444,-0.009 45.09665,-0.0175 3.63301,13.26837 6.22174,26.84388 7.39764,40.56856 1.22856,17.01545 -0.55285,34.12743 -3.85239,50.82697 -2.87832,14.36529 -6.34459,28.60772 -10.30229,42.70975 -4.33503,0.12285 -8.67884,0.0702 -13.01388,0.0526 0.20184,-9.46863 -0.0702,-18.93726 0.10531,-28.39711 -0.0439,-2.46588 0.28959,-5.46706 -1.80773,-7.23969 -0.97406,-0.21938 -1.95691,-0.39489 -2.93975,-0.51774 -0.92141,1.57079 -2.12364,3.15913 -1.95691,5.08971 -0.0702,10.4076 0.0439,20.81519 -0.0878,31.22279 -4.08055,-0.18429 -8.16987,-0.17551 -12.25042,-0.0614 -4.07178,-14.15468 -7.5556,-28.47609 -10.17066,-42.96423 -2.14119,-12.32941 -3.43995,-24.79921 -3.85239,-37.29535 z"
     fill="#e9eff2"
     opacity="1"
     stroke="#e9eff2"
     stroke-width="0.219384"
     id="path541" />
  <path
     d="m 214.55694,114.26239 c 0.69326,2.45711 2.46589,4.29116 4.82646,5.2389 -2.65016,0.86877 -4.28238,3.06261 -4.74748,5.76543 -0.41244,-2.43078 -1.86915,-4.58075 -4.22973,-5.45829 1.97446,-1.34263 3.43995,-3.25567 4.15075,-5.54604 z"
     fill="#ff7768"
     opacity="1"
     stroke="#ff7768"
     stroke-width="0.219384"
     id="path543" />
  <path
     d="m 487.62027,127.11832 c 0.68448,4.72115 3.79973,9.25802 8.92455,9.66169 -1.86038,1.50936 -4.44034,1.80772 -6.11643,3.57157 -1.63222,1.43039 -1.09692,4.0981 -2.93098,5.37931 -0.71958,-1.99201 -1.05304,-4.33504 -2.75547,-5.7742 -1.64099,-1.54446 -4.15952,-1.58834 -5.73909,-3.18546 5.11604,-0.26326 7.98559,-5.05461 8.61742,-9.65291 z"
     fill="#ff7660"
     opacity="1"
     stroke="#ff7660"
     stroke-width="0.219384"
     id="path545" />
  <path
     d="m 235.25805,137.80673 c 1.06182,-1.05305 2.02711,-2.19385 2.97485,-3.3522 0.85122,1.31631 1.89549,2.50976 3.37852,3.11526 -1.32508,0.43877 -2.27282,1.44794 -3.14158,2.50098 -1.04427,-0.79856 -2.04466,-1.65854 -3.21179,-2.26404 z"
     fill="#fe6e69"
     opacity="1"
     stroke="#fe6e69"
     stroke-width="0.219384"
     id="path547" />
  <path
     d="m 346.18756,156.98969 c 3.633,-1.19345 7.57315,-1.12324 11.2237,-0.0702 6.77459,2.25527 11.93451,8.8017 12.17145,15.99751 0.44754,6.05501 -2.52731,12.15389 -7.51172,15.59384 -7.19581,5.21257 -18.1738,3.73831 -23.8778,-3.01873 -4.46666,-4.98441 -5.51093,-12.63654 -2.74669,-18.70032 1.97446,-4.60707 6.11644,-8.04702 10.74106,-9.8021 z"
     fill="#49606e"
     opacity="1"
     stroke="#49606e"
     stroke-width="0.219384"
     id="path549" />
  <path
     d="m 472.13173,178.77017 c 2.61506,0.0702 3.72076,-2.29915 5.18625,-3.98402 1.07059,2.00956 2.44833,3.94892 4.96686,4.04545 -1.12325,0.30714 -2.25527,0.61428 -3.36974,0.92141 -0.52653,1.15835 -1.00917,2.33425 -1.42161,3.53648 -0.81611,-2.44833 -2.82567,-4.12443 -5.36176,-4.51932 z"
     fill="#ff6e63"
     opacity="1"
     stroke="#ff6e63"
     stroke-width="0.219384"
     id="path551" />
  <path
     d="m 219.94502,179.91097 c 0.90387,2.43078 2.50976,4.51054 5.19503,5.02829 -1.1057,0.34224 -2.20262,0.69326 -3.29954,1.05305 -0.54408,1.10569 -1.08815,2.21139 -1.6059,3.33464 -0.24571,-2.39568 -1.96568,-4.03667 -4.31748,-4.33504 2.32547,-0.71958 4.22095,-2.4571 4.02789,-5.08094 z"
     fill="#ff7262"
     opacity="1"
     stroke="#ff7262"
     stroke-width="0.219384"
     id="path553" />
  <path
     d="m 308.94487,242.1196 c 0.0351,-16.03261 7.67845,-31.01217 17.38402,-43.35912 2.61506,14.48814 6.09888,28.80955 10.17066,42.96423 4.08055,-0.11408 8.16987,-0.12286 12.25042,0.0614 0.13163,-10.4076 0.0176,-20.81519 0.0878,-31.22279 -0.16673,-1.93058 1.0355,-3.51892 1.95691,-5.08971 0.98284,0.12285 1.96569,0.29836 2.93975,0.51774 2.09732,1.77263 1.76385,4.77381 1.80773,7.23969 -0.17551,9.45985 0.0965,18.92848 -0.10531,28.39711 4.33504,0.0176 8.67885,0.0702 13.01388,-0.0526 3.9577,-14.10203 7.42397,-28.34446 10.30229,-42.70975 8.13478,10.63575 14.88304,22.7721 16.90137,36.17209 0.90387,8.13477 0.13164,16.38363 -1.71997,24.33412 -0.24571,-0.0176 -0.73713,-0.0439 -0.98284,-0.0527 -1.43916,-5.13359 -4.80013,-9.62658 -9.16149,-12.64531 -3.92259,-2.78179 -8.7666,-4.82646 -13.61061,-4.47544 -2.3869,2.14996 -3.14158,5.61624 -4.19463,8.56476 0.47387,1.26366 1.08815,2.47466 1.75508,3.65056 -3.73831,0.25448 -7.49417,0.31591 -11.24126,0.26326 -0.29836,1.19345 -0.57917,2.3869 -0.84243,3.58913 -0.59673,4.36136 0.40367,8.8719 -1.04427,13.11918 -0.97407,0.28959 -1.94813,0.58795 -2.91343,0.88632 -0.57917,-0.21061 -1.71997,-0.64061 -2.29914,-0.85122 -1.16713,-4.08932 -0.55285,-8.3717 -0.69326,-12.55756 0.28081,-5.52848 -0.0175,-11.06574 -0.0614,-16.58545 -0.0878,2.72914 -0.009,5.45828 -0.0965,8.1962 -3.33465,-0.14041 -6.67806,-0.079 -10.00393,0.0614 3.15036,0.27204 6.51133,-0.39489 9.53006,0.70203 0.009,0.29837 0.0263,0.90387 0.0351,1.20223 -2.852,1.31631 -6.17787,0.97407 -9.24925,0.93019 0.009,0.13163 0.0175,0.37734 0.0263,0.5002 3.29954,-0.27204 6.61663,-0.0965 9.88107,0.45632 -0.28081,1.66732 -0.77223,3.67688 -2.68526,4.11565 -3.89627,0.16673 -7.79254,-0.13163 -11.67125,-0.4651 1.3514,-2.23772 2.94852,-4.33503 4.063,-6.70438 0.19305,-3.4926 -1.71998,-6.49378 -3.48383,-9.31945 -5.17747,0.17551 -10.24086,1.83405 -14.31263,5.08094 -2.83445,2.27282 -5.37931,5.01951 -7.10806,8.24008 -0.85121,1.50058 -1.1759,3.30831 -2.43078,4.54564 -1.53569,-5.76542 -2.31669,-11.73268 -2.19384,-17.69993 z"
     fill="#2f404a"
     opacity="1"
     stroke="#2f404a"
     stroke-width="0.219384"
     id="path555" />
  <path
     d="m 351.65462,212.33598 c 0.16673,-0.31591 0.51774,-0.94774 0.69325,-1.26365 0.49142,15.61139 0.15796,31.24033 0.24571,46.86927 -0.0351,3.90504 0.11408,7.81008 -0.21061,11.71512 -1.48303,-1.12324 -0.82488,-3.10648 -0.93019,-4.67727 0.0527,-17.55075 -0.0614,-35.1015 0.20184,-52.64347 z"
     fill="#85929d"
     opacity="1"
     stroke="#85929d"
     stroke-width="0.219384"
     id="path557" />
  <path
     d="m 474.817,224.49865 c 2.34302,-1.00917 4.11565,-2.7818 4.8089,-5.28278 0.37734,2.8169 2.73792,4.41402 5.28278,5.1687 -1.13203,0.34224 -2.25527,0.7108 -3.36975,1.09692 -0.6406,1.2461 -1.36896,2.43955 -2.12364,3.61545 -0.43877,-2.51853 -2.32547,-3.85239 -4.59829,-4.59829 z"
     fill="#ff7360"
     opacity="1"
     stroke="#ff7360"
     stroke-width="0.219384"
     id="path559" />
  <path
     d="m 240.93572,220.99727 c 1.28998,1.64977 1.29876,3.96647 2.76424,5.50216 1.641,1.80773 4.12443,2.36058 6.3095,3.22934 -1.84283,0.85999 -3.91382,1.31631 -5.54604,2.58874 -1.97446,1.80772 -2.74669,4.52809 -3.04505,7.10805 -0.58795,-2.00956 -0.95652,-4.14198 -2.00079,-5.98481 -1.54447,-1.97445 -4.08932,-2.62383 -6.3446,-3.40484 2.22017,-1.26365 5.02829,-2.00079 6.33583,-4.39646 0.7108,-1.47427 1.01794,-3.09771 1.52691,-4.64218 z"
     fill="#fe7760"
     opacity="1"
     stroke="#fe7760"
     stroke-width="0.219384"
     id="path561" />
  <path
     d="m 320.67755,247.03381 c 4.07177,-3.24689 9.13516,-4.90543 14.31263,-5.08094 1.76385,2.82567 3.67688,5.82685 3.48383,9.31945 -6.07256,-0.68448 -12.16267,-1.82528 -17.79646,-4.23851 z"
     fill="#ff9572"
     opacity="1"
     stroke="#ff9572"
     stroke-width="0.219384"
     id="path563" />
  <path
     d="m 365.9848,250.76334 c 1.05305,-2.94852 1.80773,-6.4148 4.19463,-8.56476 4.84401,-0.35102 9.68802,1.69365 13.61061,4.47544 -5.51094,2.57996 -11.69758,4.11565 -17.80524,4.08932 z"
     fill="#ff7e65"
     opacity="1"
     stroke="#ff7e65"
     stroke-width="0.219384"
     id="path565" />
  <path
     d="m 479.38019,246.12117 c 3.32587,-2.55363 8.03824,-4.90543 12.08369,-2.50098 2.9573,1.51814 3.29954,5.23012 3.40485,8.17865 -0.33347,7.03785 -2.49221,13.82999 -4.79136,20.4554 -1.72875,0.68447 -2.48343,2.46588 -3.33464,3.97524 -1.80773,3.47505 -3.82606,6.85357 -5.33543,10.4778 -4.05422,10.17943 -8.95965,20.14826 -10.87269,31.0385 -2.36057,9.10006 -4.14197,18.47216 -8.32783,26.95795 -3.95769,9.41597 -8.81047,19.31459 -17.95441,24.70267 -1.0004,-0.55284 -2.00956,-1.07937 -3.02751,-1.59711 l 0.16674,-0.54408 c 1.52691,-5.00196 2.98362,-10.0127 4.55441,-14.99711 1.40406,-5.09849 6.78337,-7.26601 10.11801,-10.92534 -2.89587,1.49181 -5.40563,3.58035 -8.20497,5.22134 2.4922,-10.16188 7.96804,-19.4199 9.83719,-29.73096 -1.26365,5.01074 -3.71198,9.58271 -5.45828,14.42671 -1.48304,3.92259 -2.52731,8.04702 -4.75625,11.64492 -0.22816,-2.60628 -0.37735,-5.21257 -0.59673,-7.81008 -0.19306,4.22096 0.31591,8.53844 -0.88631,12.66287 -1.76385,6.485 -4.063,12.82082 -5.88828,19.29704 -2.81689,-0.88631 -4.24728,-3.7032 -4.54564,-6.46745 -1.11448,-9.91617 0.42122,-19.9552 3.633,-29.3624 6.52011,-20.83274 12.62777,-42.00772 22.86863,-61.39252 4.7738,-8.54721 9.85474,-17.19973 17.31381,-23.71106 z"
     fill="#ff7b62"
     opacity="1"
     stroke="#ff7b62"
     stroke-width="0.219384"
     id="path567" />
  <path
     d="m 204.56179,251.00028 c 0.29837,-2.89587 2.70282,-6.00236 5.82685,-5.92338 4.23851,-0.5002 7.0905,3.37852 8.95966,6.61663 5.08972,9.35455 9.14394,19.25317 14.36529,28.5463 0.35101,0.76345 0.93896,1.50058 0.92141,2.3869 -0.17551,3.60668 1.28998,6.95887 2.23772,10.36371 2.69404,8.40681 4.51054,17.04178 6.82724,25.54512 1.05305,5.24767 1.71998,10.79371 5.01952,15.23405 3.33464,4.31748 3.99279,9.86352 6.25684,14.69875 -0.0878,3.35219 -0.40367,6.74826 -1.8165,9.82842 -4.75626,-11.36411 -9.70557,-22.68434 -15.32181,-33.64478 2.79057,7.73988 6.49378,15.11997 9.57394,22.74577 0.54407,1.28998 0.56162,2.72036 0.6757,4.0981 4.04545,5.68644 6.03746,12.46103 8.75782,18.80562 1.20223,2.77302 2.2816,5.60747 3.12404,8.51212 -3.89627,2.40445 -7.65213,-1.37774 -10.3725,-3.84362 -5.86195,-6.40602 -10.12678,-14.0757 -14.52324,-21.50844 -8.47701,-15.61139 -13.11918,-32.90765 -18.28788,-49.80025 -3.00118,-10.23209 -5.92338,-20.48172 -8.7666,-30.75769 -2.08854,-7.0905 -4.30871,-14.43549 -3.4575,-21.90333 z"
     fill="#ff7b62"
     opacity="1"
     stroke="#ff7b62"
     stroke-width="0.219384"
     id="path569" />
  <path
     d="m 356.49862,254.67716 c 3.74709,0.0526 7.50295,-0.009 11.24126,-0.26326 1.00917,1.07937 1.93058,2.24649 2.33425,3.71198 -0.95652,0.0263 -2.86955,0.0878 -3.82606,0.11408 -3.52771,0.19306 -7.06418,0.26326 -10.59188,0.0263 0.26326,-1.20223 0.54407,-2.39568 0.84243,-3.58913 z"
     fill="#2f3e46"
     opacity="1"
     stroke="#2f3e46"
     stroke-width="0.219384"
     id="path571" />
  <path
     d="m 354.61192,271.38547 c 1.44794,-4.24728 0.44754,-8.75782 1.04427,-13.11918 3.5277,0.23693 7.06417,0.16673 10.59188,-0.0263 0.1053,0.31592 0.30713,0.93897 0.40366,1.24611 1.43916,4.44033 3.47505,8.71394 4.0981,13.38244 2.52731,16.04139 -1.94813,32.05644 -7.11683,47.11499 -3.5979,8.77537 -6.70438,17.78768 -11.37288,26.08041 -2.77302,-4.27361 -4.39646,-9.13517 -6.35337,-13.79489 -5.45829,-13.46142 -10.09168,-27.42304 -11.80288,-41.91119 -1.03549,-10.22331 -0.37734,-21.04335 4.48422,-30.29259 -0.35979,4.58952 -2.65894,8.74027 -3.16791,13.32102 -2.2114,14.83916 1.36895,29.78362 6.15153,43.77157 2.73792,9.06496 6.73949,17.6736 10.28474,26.4402 2.84322,-4.58952 4.83523,-9.64414 6.87989,-14.61978 2.08854,-6.04623 5.08972,-11.76777 6.60786,-18.00706 3.61546,-12.32063 6.49378,-25.31696 4.27361,-38.18166 -0.87754,-4.72992 -2.64139,-9.22292 -4.80891,-13.49652 -1.64977,0.21061 -3.633,-0.44755 -5.03706,0.62305 0.85121,6.37092 2.96608,12.58389 3.15036,19.06889 0.0878,7.34499 0.47387,14.84793 -1.65855,21.97353 -1.91303,8.81048 -4.2736,17.51565 -7.08172,26.08919 -0.51775,1.38651 -1.30754,2.65894 -2.07977,3.92259 -3.36974,-9.06496 -5.74787,-18.48971 -7.77498,-27.94079 -3.78219,-14.50569 -2.70281,-29.97668 1.41284,-44.29809 0.98284,0.0439 1.97445,0.0878 2.96607,0.13163 0.14041,4.18586 -0.47387,8.46824 0.69326,12.55756 0.57917,0.21061 1.71997,0.64061 2.29914,0.85122 0.9653,-0.29837 1.93936,-0.59673 2.91343,-0.88632 z"
     fill="#ffdda5"
     opacity="1"
     stroke="#ffdda5"
     stroke-width="0.219384"
     id="path573" />
  <path
     d="m 338.75482,258.86301 c 2.3167,-0.19305 4.65095,-0.23693 6.9852,-0.13163 -4.11565,14.32141 -5.19503,29.7924 -1.41284,44.29809 2.02711,9.45108 4.40524,18.87583 7.77498,27.94079 0.77223,-1.26365 1.56202,-2.53608 2.07977,-3.92259 2.80812,-8.57354 5.16869,-17.27871 7.08172,-26.08919 2.13242,-7.1256 1.7463,-14.62854 1.65855,-21.97353 -0.18428,-6.485 -2.29915,-12.69797 -3.15036,-19.06889 1.40406,-1.0706 3.38729,-0.41244 5.03706,-0.62305 2.16752,4.2736 3.93137,8.7666 4.80891,13.49652 2.22017,12.8647 -0.65815,25.86103 -4.27361,38.18166 -1.51814,6.23929 -4.51932,11.96083 -6.60786,18.00706 -2.04466,4.97564 -4.03667,10.03026 -6.87989,14.61978 -3.54525,-8.7666 -7.54682,-17.37524 -10.28474,-26.4402 -4.78258,-13.98795 -8.36293,-28.93241 -6.15153,-43.77157 0.50897,-4.58075 2.80812,-8.7315 3.16791,-13.32102 l 0.11408,-0.82488 z"
     fill="#ffc173"
     opacity="1"
     stroke="#ffc173"
     stroke-width="0.219384"
     id="path575" />
  <path
     d="m 333.63877,266.14657 c 1.54447,-2.39567 2.37813,-5.49338 5.0634,-6.90621 l -0.11408,0.82488 c -4.86156,9.24924 -5.51971,20.06928 -4.48422,30.29259 1.7112,14.48815 6.34459,28.44977 11.80288,41.91119 1.95691,4.65972 3.58035,9.52128 6.35337,13.79489 4.6685,-8.29273 7.77498,-17.30504 11.37288,-26.08041 5.1687,-15.05855 9.64414,-31.0736 7.11683,-47.11499 -0.62305,-4.6685 -2.65894,-8.94211 -4.0981,-13.38244 3.08016,3.0977 4.80013,7.22213 6.59908,11.12717 5.11605,12.2943 5.38808,25.8347 6.01114,38.93634 0,7.0905 0.77223,14.13712 0.89508,21.21885 0.37734,10.31984 2.00956,20.55193 4.18586,30.63483 3.71198,15.7518 12.41715,29.87138 23.16699,41.77956 4.44911,0.57917 9.12638,-0.28081 13.44387,1.38651 9.10884,3.25566 16.08526,11.05697 19.92887,19.76214 3.30832,6.93255 3.65934,14.74263 3.65056,22.28945 -59.43561,-0.0965 -118.87122,-0.0527 -178.30683,-0.0176 -1.18468,-13.20694 3.15036,-27.30896 13.19816,-36.28617 5.66012,-5.274 13.5053,-7.5556 21.14865,-7.09928 7.18704,-8.17865 12.61022,-17.82278 16.3573,-28.02854 2.32548,-5.7742 4.26483,-11.75023 5.03707,-17.94564 2.65016,-15.41834 3.15913,-31.08238 3.13281,-46.685 0.65815,-15.04976 1.26365,-30.82789 8.53843,-44.41217 z"
     fill="#ff7b62"
     opacity="1"
     stroke="#ff7b62"
     stroke-width="0.219384"
     id="path577" />
  <path
     d="m 486.74273,276.22948 c 0.85121,-1.50936 1.60589,-3.29077 3.33464,-3.97524 -2.56241,7.43274 -5.39685,14.8216 -6.92377,22.56148 -4.844,22.02619 -10.86391,43.92953 -20.42907,64.41125 -2.44833,4.86156 -5.74787,9.93372 -11.1535,11.78533 -2.54486,1.08814 -5.12482,-0.42122 -7.31866,-1.6059 9.14394,-5.38808 13.99672,-15.2867 17.95441,-24.70267 4.18586,-8.48579 5.96726,-17.85789 8.32783,-26.95795 1.91304,-10.89024 6.81847,-20.85907 10.87269,-31.0385 1.50937,-3.62423 3.5277,-7.00275 5.33543,-10.4778 z"
     fill="#d45f4c"
     opacity="1"
     stroke="#d45f4c"
     stroke-width="0.219384"
     id="path579" />
  <path
     d="m 236.87272,292.99044 c -0.94774,-3.40484 -2.41323,-6.75703 -2.23772,-10.36371 6.30072,11.00432 11.95206,22.39475 17.33137,33.88172 6.33582,14.31263 11.759,29.28342 13.25081,44.96502 0.21061,5.32665 0.81611,11.53084 -3.30832,15.65526 -1.43916,-1.2461 -2.07098,-3.05383 -2.57118,-4.82645 -0.21938,-7.04663 -0.78101,-14.38284 -3.79096,-20.85029 0.0614,-3.65933 0.18428,-7.30989 0.14918,-10.96922 -0.14041,2.66771 -0.40367,5.32665 -0.71958,7.98559 -2.26405,-4.83523 -2.9222,-10.38127 -6.25684,-14.69875 -3.29954,-4.44034 -3.96647,-9.98638 -5.01952,-15.23405 -2.3167,-8.50334 -4.1332,-17.13831 -6.82724,-25.54512 z"
     fill="#d55f4c"
     opacity="1"
     stroke="#d55f4c"
     stroke-width="0.219384"
     id="path581" />
  <path
     d="m 180.6489,298.20302 c 0.85121,-1.7112 2.44833,-3.00118 2.83444,-4.94054 0.35979,2.57996 2.63262,3.86117 4.85279,4.65095 -2.41323,0.6055 -4.43157,2.11486 -4.85279,4.69482 -0.24571,-0.89508 -0.49142,-1.7814 -0.7459,-2.66771 -0.71958,-0.56162 -1.41284,-1.1408 -2.08854,-1.73752 z"
     fill="#ff736a"
     opacity="1"
     stroke="#ff736a"
     stroke-width="0.219384"
     id="path583" />
  <path
     d="m 285.76033,301.8448 c 1.56202,2.07099 1.86916,4.94931 3.96647,6.6254 1.82528,1.62345 4.23851,2.22017 6.54643,2.7818 -2.18507,0.6406 -4.56319,1.02672 -6.3797,2.4922 -2.07098,1.84283 -2.72036,4.6334 -3.31709,7.22214 -0.85121,-2.37813 -1.45671,-5.01952 -3.32586,-6.83602 -1.65855,-1.57079 -3.9928,-1.93058 -6.10767,-2.52731 2.00957,-1.30753 4.6685,-1.63222 6.17787,-3.62423 1.57957,-1.66732 1.90425,-4.00157 2.43955,-6.13398 z"
     fill="#ffa17c"
     opacity="1"
     stroke="#ffa17c"
     stroke-width="0.219384"
     id="path585" />
  <path
     d="m 413.18754,307.85593 c 0.81611,-1.70242 1.36896,-3.51015 2.14119,-5.2389 0.87754,2.54486 1.50937,5.50216 3.86994,7.13438 1.70243,1.03549 3.64178,1.63222 5.33543,2.71159 -2.01833,0.78101 -4.27361,1.211 -5.97603,2.61506 -1.65854,1.76385 -2.33425,4.1683 -3.40484,6.30072 -0.58795,-2.03589 -1.07937,-4.22095 -2.56241,-5.81807 -1.65855,-1.87793 -4.19463,-2.44833 -6.43235,-3.31709 2.65894,-0.75469 5.60746,-1.80773 7.02907,-4.38769 z"
     fill="#ffa17c"
     opacity="1"
     stroke="#ffa17c"
     stroke-width="0.219384"
     id="path587" />
  <path
     d="m 508.64606,305.39882 c 1.0004,2.08854 2.56241,3.79974 4.58953,4.93176 -2.36058,0.4651 -3.80852,2.34303 -4.37014,4.58953 -0.5002,-2.33425 -1.88671,-4.36137 -4.44912,-4.58075 0.90387,-0.47387 1.80773,-0.93897 2.72037,-1.40406 0.50897,-1.18468 1.00917,-2.36058 1.50936,-3.53648 z"
     fill="#ff776c"
     opacity="1"
     stroke="#ff776c"
     stroke-width="0.219384"
     id="path589" />
  <path
     d="m 457.69624,316.83314 c -1.86915,10.31106 -7.34499,19.56908 -9.83719,29.73096 2.79934,-1.64099 5.3091,-3.72953 8.20497,-5.22134 -3.33464,3.65933 -8.71395,5.82685 -10.11801,10.92534 -1.57079,4.98441 -3.0275,9.99515 -4.55441,14.99711 l -1.28121,-0.21061 c 1.82528,-6.47622 4.12443,-12.81204 5.88828,-19.29704 1.20222,-4.12443 0.69325,-8.44191 0.88631,-12.66287 0.21938,2.59751 0.36857,5.2038 0.59673,7.81008 2.22894,-3.5979 3.27321,-7.72233 4.75625,-11.64492 1.7463,-4.844 4.19463,-9.41597 5.45828,-14.42671 z"
     fill="#ffdda5"
     opacity="1"
     stroke="#ffdda5"
     stroke-width="0.219384"
     id="path591" />
  <path
     d="m 168.10011,332.49718 c 0.21939,-2.98363 1.39529,-6.64296 4.58075,-7.58192 4.67727,-1.72875 9.17904,1.86915 12.07491,5.21257 3.72954,4.34381 6.80969,9.17904 10.28474,13.71591 l -0.0263,0.28959 c -0.5353,2.10609 0.77223,3.94014 1.67609,5.71276 3.66811,6.85357 6.59908,14.07571 9.13517,21.42069 1.16712,3.17669 2.11486,6.49378 4.04545,9.31945 0.0439,1.50059 0.0614,3.00118 0.0439,4.51054 -6.39725,-7.82763 -10.80248,-17.09443 -16.88382,-25.16777 5.03707,9.43353 10.93412,18.37563 16.24322,27.6512 -4.72115,-1.10569 -8.90701,-3.71198 -13.61061,-4.88788 4.44912,2.29037 9.10007,4.15953 13.61938,6.29194 2.40446,1.09693 3.15036,3.8875 4.493,5.95848 1.40406,2.89588 3.83484,5.40563 4.48421,8.61742 -0.86876,1.43916 -2.79934,1.79018 -4.26483,2.41323 -3.54525,0.65815 -6.74826,-1.49181 -9.63536,-3.23811 -4.84401,-2.99241 -8.75782,-7.32744 -11.46941,-12.31185 -7.4503,-13.22449 -12.64532,-27.56346 -19.54276,-41.06876 -2.71159,-5.23012 -5.11605,-10.88146 -5.24768,-16.85749 z"
     fill="#ff7a62"
     opacity="1"
     stroke="#ff7a62"
     stroke-width="0.219384"
     id="path593" />
  <path
     d="m 237.83801,324.652 c 5.61624,10.96044 10.56555,22.28067 15.32181,33.64478 1.41283,-3.08016 1.72875,-6.47623 1.8165,-9.82842 0.31591,-2.65894 0.57917,-5.31788 0.71958,-7.98559 0.0351,3.65933 -0.0878,7.30989 -0.14918,10.96922 -0.28081,3.24689 -1.36896,6.49378 -0.85999,9.75821 1.16713,3.84362 3.22934,7.33622 4.65095,11.09208 0.5002,1.77262 1.13202,3.58035 2.57118,4.82645 -0.64937,0.55285 -1.29875,1.1057 -1.93935,1.68488 -0.84244,-2.90465 -1.92181,-5.7391 -3.12404,-8.51212 -2.72036,-6.34459 -4.71237,-13.11918 -8.75782,-18.80562 -0.11408,-1.37774 -0.13163,-2.80812 -0.6757,-4.0981 -3.08016,-7.6258 -6.78337,-15.00589 -9.57394,-22.74577 z"
     fill="#ffdda5"
     opacity="1"
     stroke="#ffdda5"
     stroke-width="0.219384"
     id="path595" />
  <path
     d="m 515.05209,335.2702 c 2.73791,-2.37813 6.17786,-5.62502 10.10045,-3.90504 3.70321,2.21139 2.96608,7.1607 1.94814,10.6884 -1.5708,4.08055 -2.9573,8.34538 -5.25645,12.07492 -3.72076,3.55402 -5.8444,8.31905 -9.09129,12.25042 -4.69483,5.82685 -9.02986,11.96961 -14.28631,17.32259 -5.42318,5.51971 -9.03864,12.56633 -14.65487,17.91931 -1.96569,1.86038 -3.65056,3.9928 -5.22135,6.19542 -0.21061,-0.43 -0.63183,-1.29876 -0.84244,-1.73753 -0.47387,-1.01794 -0.97407,-2.05343 -1.1759,-3.15913 1.62345,-3.18546 3.90504,-5.98481 5.8093,-9.01231 1.8165,-2.54486 3.19424,-5.43196 5.37053,-7.696 2.84322,-2.22017 6.10766,-3.84362 8.84558,-6.22174 -1.95691,0.7459 -3.91382,1.49181 -5.87951,2.22017 1.69365,-3.9928 4.72993,-7.16949 6.66051,-11.0131 -3.08015,2.75547 -4.93176,6.57276 -8.07334,9.27557 0.26326,-1.97446 0.5353,-3.94892 0.69325,-5.93215 -1.21977,3.88749 -1.8516,8.05579 -4.2385,11.47819 -3.21179,4.844 -6.485,9.65291 -9.78454,14.44426 -0.33347,0.12286 -1.0004,0.36857 -1.33386,0.49142 -0.90386,-5.42318 1.04427,-10.7586 2.72036,-15.83955 1.98324,-6.10766 6.09889,-11.14472 9.89863,-16.20811 4.40524,-5.51971 8.99476,-10.88147 13.45265,-16.3573 4.81768,-5.73032 9.15271,-11.87308 14.33896,-17.27871 z"
     fill="#ff7b62"
     opacity="1"
     stroke="#ff7b62"
     stroke-width="0.219384"
     id="path597" />
  <path
     d="m 196.69028,349.84609 c -0.90386,-1.77262 -2.21139,-3.60667 -1.67609,-5.71276 7.14315,9.43352 13.88264,19.19174 20.19213,29.20444 3.10649,4.85278 5.30033,10.23209 7.03785,15.70792 1.00917,3.86117 1.61467,8.47701 -0.64937,12.00471 -0.47388,0.57918 -0.95652,1.15835 -1.43917,1.73753 -2.34302,-4.29994 -4.88788,-8.48579 -7.43274,-12.66287 -1.62344,-2.5273 -1.50936,-5.61624 -2.07976,-8.45068 -0.19306,-0.27204 -0.57918,-0.81611 -0.77223,-1.08815 -1.93059,-2.82567 -2.87833,-6.14276 -4.04545,-9.31945 -2.53609,-7.34498 -5.46706,-14.56712 -9.13517,-21.42069 z"
     fill="#d55f4d"
     opacity="1"
     stroke="#d55f4d"
     stroke-width="0.219384"
     id="path599" />
  <path
     d="m 254.68673,361.2102 c -0.50897,-3.26443 0.57918,-6.51132 0.85999,-9.75821 3.00995,6.46745 3.57158,13.80366 3.79096,20.85029 -1.42161,-3.75586 -3.48382,-7.24846 -4.65095,-11.09208 z"
     fill="#ff7c66"
     opacity="1"
     stroke="#ff7c66"
     stroke-width="0.219384"
     id="path601" />
  <path
     d="m 512.75294,366.3789 c 3.24689,-3.93137 5.37053,-8.6964 9.09129,-12.25042 -4.37891,10.62698 -10.548,20.44662 -16.41873,30.31014 -4.60707,6.50255 -9.07374,13.12796 -13.95284,19.43745 -2.86078,3.86117 -8.32783,6.60786 -12.88225,3.94015 1.57079,-2.20262 3.25566,-4.33504 5.22135,-6.19542 5.61623,-5.35298 9.23169,-12.3996 14.65487,-17.91931 5.25645,-5.35298 9.59148,-11.49574 14.28631,-17.32259 z"
     fill="#d45f4c"
     opacity="1"
     stroke="#d45f4c"
     stroke-width="0.219384"
     id="path603" />
  <path
     d="m 271.06158,370.31904 c 12.57511,-10.0829 29.09914,-14.65487 45.09665,-13.61938 -0.61428,2.44833 -1.30753,4.89666 -2.3518,7.20458 -2.93098,6.47623 -5.1336,13.28592 -8.65252,19.49889 -3.68566,6.45867 -7.88029,12.61898 -12.2592,18.63012 0.4651,0.0878 1.40406,0.25448 1.87793,0.34224 -8.3015,0.73713 -15.8922,5.51093 -20.80641,12.13634 -7.04663,8.99476 -9.72312,20.83274 -8.91578,32.09154 -22.68434,-0.009 -45.37746,0.14918 -68.0618,0.079 -1.04427,-15.53241 6.98519,-31.37196 20.04295,-39.79632 2.2465,-1.23733 4.43156,-2.57119 6.62541,-3.89627 8.3015,-4.15953 18.1036,-5.02829 27.18611,-3.38729 3.58035,-11.47819 10.45147,-22.14027 20.21846,-29.28343 z"
     fill="#ff7b62"
     opacity="1"
     stroke="#ff7b62"
     stroke-width="0.219384"
     id="path605" />
  <path
     d="m 316.15823,356.69966 c 1.62344,0.0878 3.25566,0.15796 4.88788,0.23694 -1.36018,9.95127 -5.15114,19.39357 -9.56516,28.35323 -2.63261,5.57236 -6.36214,10.52168 -10.0829,15.39201 -1.46549,2.21139 -4.38769,1.46549 -6.62541,1.69365 -0.47387,-0.0878 -1.41283,-0.25449 -1.87793,-0.34224 4.37891,-6.01114 8.57354,-12.17145 12.2592,-18.63012 3.51892,-6.21297 5.72154,-13.02266 8.65252,-19.49889 1.04427,-2.30792 1.73752,-4.75625 2.3518,-7.20458 z"
     fill="#d45e4c"
     opacity="1"
     stroke="#d45e4c"
     stroke-width="0.219384"
     id="path607" />
  <path
     d="m 321.04611,356.9366 0.92142,0.30714 c -0.77224,6.19541 -2.71159,12.17144 -5.03707,17.94564 -3.74708,10.20576 -9.17026,19.84989 -16.3573,28.02854 -7.64335,-0.45632 -15.48853,1.82528 -21.14865,7.09928 -10.0478,8.97721 -14.38284,23.07923 -13.19816,36.28617 -0.28959,0 -0.87754,0 -1.1759,0 -0.80734,-11.2588 1.86915,-23.09678 8.91578,-32.09154 4.91421,-6.62541 12.50491,-11.39921 20.80641,-12.13634 2.23772,-0.22816 5.15992,0.51774 6.62541,-1.69365 3.72076,-4.87033 7.45029,-9.81965 10.0829,-15.39201 4.41402,-8.95966 8.20498,-18.40196 9.56516,-28.35323 z"
     fill="#e9cdac"
     opacity="1"
     stroke="#e9cdac"
     stroke-width="0.219384"
     id="path609" />
  <path
     d="m 209.27417,387.5802 c -5.3091,-9.27557 -11.20615,-18.21767 -16.24322,-27.6512 6.08134,8.07334 10.48657,17.34014 16.88382,25.16777 0.0175,-1.50936 0,-3.00995 -0.0439,-4.51054 0.19305,0.27204 0.57917,0.81611 0.77223,1.08815 0.5704,2.83444 0.45632,5.92338 2.07976,8.45068 2.54486,4.17708 5.08972,8.36293 7.43274,12.66287 0.48265,-0.57918 0.96529,-1.15835 1.43917,-1.73753 0,0.48265 0,1.45672 0,1.94814 0.50897,-0.009 1.54446,-0.009 2.06221,-0.009 -2.19385,1.32508 -4.37891,2.65894 -6.62541,3.89627 -1.00917,-0.33347 -2.01834,-0.63183 -3.03628,-0.91264 1.46549,-0.62305 3.39607,-0.97407 4.26483,-2.41323 -0.64937,-3.21179 -3.08015,-5.72154 -4.48421,-8.61742 -1.34264,-2.07098 -2.08854,-4.86155 -4.493,-5.95848 -4.51931,-2.13241 -9.17026,-4.00157 -13.61938,-6.29194 4.7036,1.1759 8.88946,3.78219 13.61061,4.88788 z"
     fill="#e9cdac"
     opacity="1"
     stroke="#e9cdac"
     stroke-width="0.219384"
     id="path611" />
  <path
     d="m 386.65081,361.40326 c 14.18978,-2.69404 29.16934,-2.76424 42.89403,2.20262 18.7793,6.30072 35.36476,19.86745 44.27176,37.64636 0.95652,2.39567 2.12364,4.71237 3.37852,6.97642 0.51775,0.99162 0.92142,2.04466 1.33386,3.09771 4.88788,-0.40367 9.84597,-0.84244 14.70753,0.0176 9.29312,1.89548 17.81401,8.05579 21.94721,16.68198 3.09771,5.69522 4.25605,12.28553 3.64178,18.71788 -24.34289,-0.0702 -48.68578,-0.0878 -73.02867,-0.11408 -0.19305,-6.59031 -0.30713,-13.3298 -2.60628,-19.58664 -3.68566,-10.83758 -12.04859,-20.70988 -23.31617,-23.92167 -3.72076,-1.211 -7.74866,-0.0439 -11.44309,-0.79856 -10.25841,-10.5129 -17.74381,-23.64086 -22.31578,-37.58492 -0.55285,-1.15835 -0.31591,-2.39568 0.5353,-3.33465 z"
     fill="#ff7b62"
     opacity="1"
     stroke="#ff7b62"
     stroke-width="0.219384"
     id="path613" />
  <path
     d="m 384.34289,361.40326 c 0.57917,0 1.72875,0 2.30792,0 -0.85121,0.93897 -1.08815,2.1763 -0.5353,3.33465 4.57197,13.94406 12.05737,27.07202 22.31578,37.58492 3.69443,0.75469 7.72233,-0.41244 11.44309,0.79856 11.26758,3.21179 19.63051,13.08409 23.31617,23.92167 2.29915,6.25684 2.41323,12.99633 2.60628,19.58664 l -1.26365,-0.009 c 0.009,-7.54682 -0.34224,-15.3569 -3.65056,-22.28945 -3.84361,-8.70517 -10.82003,-16.50648 -19.92887,-19.76214 -4.31749,-1.66732 -8.99476,-0.80734 -13.44387,-1.38651 -10.74984,-11.90818 -19.45501,-26.02776 -23.16699,-41.77956 z"
     fill="#e9cdac"
     opacity="1"
     stroke="#e9cdac"
     stroke-width="0.219384"
     id="path615" />
  <path
     d="m 489.30514,380.47215 c 3.14158,-2.70281 4.99319,-6.5201 8.07334,-9.27557 -1.93058,3.84361 -4.96686,7.0203 -6.66051,11.0131 1.96569,-0.72836 3.9226,-1.47427 5.87951,-2.22017 -2.73792,2.37812 -6.00236,4.00157 -8.84558,6.22174 -2.17629,2.26404 -3.55403,5.15114 -5.37053,7.696 -1.90426,3.0275 -4.18585,5.82685 -5.8093,9.01231 0.20183,1.1057 0.70203,2.14119 1.1759,3.15913 -0.1404,0.54408 -0.41244,1.61467 -0.55285,2.14997 -1.25488,-2.26405 -2.422,-4.58075 -3.37852,-6.97642 l 0.82489,-0.29837 c 0.33346,-0.12285 1.00039,-0.36856 1.33386,-0.49142 3.29954,-4.79135 6.57275,-9.60026 9.78454,-14.44426 2.3869,-3.4224 3.01873,-7.5907 4.2385,-11.47819 -0.15795,1.98323 -0.42999,3.95769 -0.69325,5.93215 z"
     fill="#f6b597"
     opacity="1"
     stroke="#f6b597"
     stroke-width="0.219384"
     id="path617" />
</svg>
