<?xml version="1.0" encoding="UTF-8" standalone="no"?>
<!-- Created with Inkscape (http://www.inkscape.org/) -->

<svg
   xmlns:dc="http://purl.org/dc/elements/1.1/"
   xmlns:cc="http://creativecommons.org/ns#"
   xmlns:rdf="http://www.w3.org/1999/02/22-rdf-syntax-ns#"
   xmlns:svg="http://www.w3.org/2000/svg"
   xmlns="http://www.w3.org/2000/svg"
   version="1.1"
   width="171.88976"
   height="172.82237"
   id="svg47600">
  <defs
     id="defs47602">
    <clipPath
       id="clipPath26177">
      <path
         d="m 430.92,82.346 146.469,0 0,144.815 -146.469,0 0,-144.815 z"
         id="path26179" />
    </clipPath>
  </defs>
  <metadata
     id="metadata47605">
    <rdf:RDF>
      <cc:Work
         rdf:about="">
        <dc:format>image/svg+xml</dc:format>
        <dc:type
           rdf:resource="http://purl.org/dc/dcmitype/StillImage" />
        <dc:title></dc:title>
      </cc:Work>
    </rdf:RDF>
  </metadata>
  <g
     transform="translate(-289.04058,-445.96807)"
     id="layer1">
    <g
       transform="matrix(1.25,0,0,-1.25,-255.19324,727.29093)"
       clip-path="url(#clipPath26177)"
       id="g26175">
      <g
         transform="translate(482.8912,144.90289)"
         id="g26181">
        <path
           d="m 0,0 -3.659,-9.704 3.424,-7.202 2.834,-2.48 2.242,-3.304 -1.474,-2.017 -3.484,1.426 -2.597,2.361 -1.534,0.236 c 0,0 -2.361,0 -2.242,1.77 0.429,6.455 -1.004,5.304 -0.826,12.514 l -2.127,0.709 2.383,-2.33 2.087,5.616 1.601,2.569 L 0,0 z"
           id="path26183"
           style="fill:#6999d3;fill-opacity:1;fill-rule:nonzero;stroke:none" />
      </g>
      <g
         transform="translate(469.0802,138.9763)"
         id="g26185">
        <path
           d="m 0,0 c 0,0 3.542,1.77 4.015,-0.71 0,0 3.187,-5.075 3.306,-8.499 l 2.124,-8.5 c 0,0 0.708,-2.951 4.722,-2.006 0,0 1.772,0.946 4.956,0.707 0,0 3.071,0 3.425,0.473 0,0 0.59,2.361 -2.715,2.244 0,0 -3.894,0.944 -5.666,2.359 0,0 -3.07,10.036 -3.661,13.222 L 7.083,4.013 2.361,6.374 -0.707,4.839 -2.243,2.36 -1.533,0.117 0,0 z"
           id="path26187"
           style="fill:#fce6b2;fill-opacity:1;fill-rule:nonzero;stroke:none" />
      </g>
      <g
         transform="translate(461.6422,139.2115)"
         id="g26189">
        <path
           d="m 0,0 c 0,0 3.542,1.772 4.015,-0.708 0,0 3.188,-5.075 3.304,-8.499 l 2.126,-8.501 c 0,0 0.709,-2.951 4.722,-2.007 0,0 1.772,0.945 4.959,0.71 0,0 3.069,0 3.422,0.471 0,0 0.59,2.361 -2.715,2.243 0,0 -3.894,0.945 -5.666,2.36 0,0 -3.069,10.035 -3.658,13.223 L 7.084,4.014 2.361,6.374 -0.708,4.841 -2.241,2.361 -1.534,0.118 0,0 z"
           id="path26191"
           style="fill:#fce6b2;fill-opacity:1;fill-rule:nonzero;stroke:none" />
      </g>
      <g
         transform="translate(473.5656,132.95551)"
         id="g26193">
        <path
           d="m 0,0 -0.944,-4.249 0.641,-6.585 -0.32,-1.763 -2.408,-0.163 -1.923,1.285 -1.285,1.604 0.161,2.566 0,3.691 0.964,3.689 -0.643,2.088 1.122,2.726 2.408,0.802 2.888,1.446 3.049,0 1.122,0 0,-2.889 L 3.389,2.323 0,0 z"
           id="path26195"
           style="fill:#6999d3;fill-opacity:1;fill-rule:nonzero;stroke:none" />
      </g>
      <path
         d="m 472.139,111.051 -7.218,0 0,60.968 7.218,0 0,-60.968 z"
         id="path26197"
         style="fill:#5d3131;fill-opacity:1;fill-rule:nonzero;stroke:none" />
      <g
         transform="translate(454.6519,131.2692)"
         id="g26199">
        <path
           d="m 0,0 c 0,0 2.248,-0.965 2.567,-3.531 l -3.85,-36.903"
           id="path26201"
           style="fill:none;stroke:#c1c0c1;stroke-width:2.24099994;stroke-linecap:round;stroke-linejoin:miter;stroke-miterlimit:4;stroke-opacity:1;stroke-dasharray:none" />
      </g>
      <g
         transform="translate(468.3667,134.3616)"
         id="g26203">
        <path
           d="m 0,0 10.748,0.482 c 0,0 2.728,-0.482 3.369,-2.088 l 7.222,-35.777"
           id="path26205"
           style="fill:none;stroke:#c1c0c1;stroke-width:2.24099994;stroke-linecap:round;stroke-linejoin:miter;stroke-miterlimit:4;stroke-opacity:1;stroke-dasharray:none" />
      </g>
      <g
         transform="translate(444.7616,138.9763)"
         id="g26207">
        <path
           d="m 0,0 c 0,0 1.653,-8.971 13.931,-8.028 0,0 7.556,0.59 13.104,2.36 0,0 5.877,2.101 7.674,1.891 l 2.832,-0.591 1.417,-1.064 -1.299,2.836 -7.201,2.36 -7.32,0.119 -4.721,0.589 -5.313,1.653 -3.896,-0.237 -2.716,0 L 5.076,2.833 2.362,3.306 1.419,1.888 0,0 z"
           id="path26209"
           style="fill:#d9aa5c;fill-opacity:1;fill-rule:nonzero;stroke:none" />
      </g>
      <g
         transform="translate(456.41811,134.4744)"
         id="g26211">
        <path
           d="m 0,0 c 0,0 11.07,-0.317 17.647,2.085 l 4.695,1.116 2.835,-0.469 -0.47,9.143 -1.302,0.299 -5.313,-0.707 -6.727,0.117 -2.361,0 L 4.282,12.765 4.753,8.633 1.123,3.69 -0.963,1.125 0,0 z"
           id="path26213"
           style="fill:#d4dcf0;fill-opacity:1;fill-rule:nonzero;stroke:none" />
      </g>
      <g
         transform="translate(443.10159,138.1644)"
         id="g26215">
        <path
           d="M 0,0 -6.579,-33.691"
           id="path26217"
           style="fill:none;stroke:#c1c0c1;stroke-width:2.24099994;stroke-linecap:round;stroke-linejoin:miter;stroke-miterlimit:4;stroke-opacity:1;stroke-dasharray:none" />
      </g>
      <g
         transform="translate(471.179,135.1178)"
         id="g26219">
        <path
           d="M 0,0 2.084,-25.189"
           id="path26221"
           style="fill:none;stroke:#c1c0c1;stroke-width:2.24099994;stroke-linecap:round;stroke-linejoin:miter;stroke-miterlimit:4;stroke-opacity:1;stroke-dasharray:none" />
      </g>
      <g
         transform="translate(535.6252,134.9297)"
         id="g26223">
        <path
           d="M 0,0 -0.161,-25.189"
           id="path26225"
           style="fill:none;stroke:#c1c0c1;stroke-width:2.24099994;stroke-linecap:round;stroke-linejoin:miter;stroke-miterlimit:4;stroke-opacity:1;stroke-dasharray:none" />
      </g>
      <g
         transform="translate(531.0226,116.8278)"
         id="g26227">
        <path
           d="m 0,0 -4.973,-0.161 -2.665,-0.593 -0.237,-2.714 4.826,0.098 1.549,0.136 2.478,-0.353 2.245,0.353 0.945,2.834 -0.637,1.684 -1.284,0 L 0,0 z"
           id="path26229"
           style="fill:#fce6b2;fill-opacity:1;fill-rule:nonzero;stroke:none" />
      </g>
      <g
         transform="translate(527.4935,133.8342)"
         id="g26231">
        <path
           d="m 0,0 -0.642,-10.75 -0.634,-6.42 0.956,0.003 4.811,-1.284 3.794,0.574 -0.265,1.833 0.643,5.935 0,3.371 0.642,4.653 0.964,3.691 L 12.032,3.85 8.02,4.01 3.529,4.492 1.124,4.33 0,0 z"
           id="path26233"
           style="fill:#6358b1;fill-opacity:1;fill-rule:nonzero;stroke:none" />
      </g>
      <g
         transform="translate(515.9399,113.1367)"
         id="g26235">
        <path
           d="m 0,0 -3.207,-3.85 c 0,0 -2.408,-2.569 -1.766,-3.37 l 1.605,0 1.369,1.302 3.068,2.126 3.747,0.585 1.924,0 0.801,0.801 L 7.863,0.322 5.456,1.925 3.05,1.764 1.767,1.284 0,0 z"
           id="path26237"
           style="fill:#fce6b2;fill-opacity:1;fill-rule:nonzero;stroke:none" />
      </g>
      <path
         d="m 510.004,117.309 -5.295,0 0,54.068 5.295,0 0,-54.068 z"
         id="path26239"
         style="fill:#5d3131;fill-opacity:1;fill-rule:nonzero;stroke:none" />
      <g
         transform="translate(510.6458,121.4807)"
         id="g26241">
        <path
           d="m 0,0 -3.528,-2.726 -3.21,-1.284 -3.208,0 -0.482,-2.41 2.246,-1.443 6.578,0 4.976,-0.32 1.763,1.122 2.728,4.173 L 8.824,0 7.382,2.407 4.012,1.605 0.642,0.641 0,0 z"
           id="path26243"
           style="fill:#fce6b2;fill-opacity:1;fill-rule:nonzero;stroke:none" />
      </g>
      <g
         transform="translate(507.1178,121.96111)"
         id="g26245">
        <path
           d="m 0,0 8.341,0.322 1.286,2.886 0.319,7.22 0.643,8.344 -0.643,4.493 -6.097,3.048 -4.655,-0.801 0.164,-5.778 L -0.322,7.061 0,0 z"
           id="path26247"
           style="fill:#4e759f;fill-opacity:1;fill-rule:nonzero;stroke:none" />
      </g>
      <g
         transform="translate(539.68719,203.62601)"
         id="g26249">
        <path
           d="m 0,0 10.589,-8.182 1.122,-5.615 -0.16,-4.494 -0.641,-5.455 -0.321,-4.172 -3.37,-3.207 -10.749,-2.246 -9.306,0.16 -8.503,3.049 -7.703,2.729 -3.85,1.602 -0.483,4.171 1.286,3.851 4.653,4.974 3.689,5.295 1.445,3.048 3.209,1.604 3.85,1.123 L -9.628,0 -6.097,0.162 -2.889,0.32 0,0 z"
           id="path26251"
           style="fill:#19354f;fill-opacity:1;fill-rule:nonzero;stroke:none" />
      </g>
      <g
         transform="translate(533.429,207.1563)"
         id="g26253">
        <path
           d="m 0,0 3.853,-0.482 -7.861,-12.835 -7.223,7.702 4.975,5.133 L 0,0 z"
           id="path26255"
           style="fill:#fce6b2;fill-opacity:1;fill-rule:nonzero;stroke:none" />
      </g>
      <g
         transform="translate(529.4205,193.8398)"
         id="g26257">
        <path
           d="M 0,0 2.084,-2.566 10.267,9.786 7.862,12.835 0,0 z"
           id="path26259"
           style="fill:#ffffff;fill-opacity:1;fill-rule:nonzero;stroke:none" />
      </g>
      <g
         transform="translate(529.4205,193.8398)"
         id="g26261">
        <path
           d="M 0,0 -0.643,-1.926 -6.1,6.255 0,0 z"
           id="path26263"
           style="fill:#ffffff;fill-opacity:1;fill-rule:nonzero;stroke:none" />
      </g>
      <path
         d="m 505.031,97.736 -4.493,0 0,68.828 4.493,0 0,-68.828 z"
         id="path26265"
         style="fill:#5d3131;fill-opacity:1;fill-rule:nonzero;stroke:none" />
      <path
         d="m 540.008,110.249 5.133,0 0,65.622 -5.133,0 0,-65.622 z"
         id="path26267"
         style="fill:#5d3131;fill-opacity:1;fill-rule:nonzero;stroke:none" />
      <g
         transform="translate(494.22591,135.3159)"
         id="g26269">
        <path
           d="m 0,0 c 0,0 -0.463,-0.558 -7.201,-0.235 l -3.896,0.471 -2.833,2.007 -1.771,6.256 -1.89,1.064 -3.658,0.236 -7.793,0.826 -1.886,0.944 -2.598,1.418 -1.536,1.651 -0.34,14.203 -3.048,5.616 1.604,3.85 c 0,0 5.775,2.727 7.701,2.727 0,0 21.178,3.692 41.395,3.692 0,0 24.385,-1.444 32.247,-3.209 L 48.828,30.607 48.348,21.781 45.141,16.97 39.685,12.476 38.563,10.872 36.635,8.145 35.512,6.379 c 0,0 -1.923,-1.282 -3.207,-1.443 0,0 -1.605,-0.482 -2.888,-1.765 0,0 -4.011,-1.283 -6.898,0.16 0,0 -4.173,1.446 -8.825,-0.16 0,0 -1.293,-2.084 -5.784,-1.281 0,0 -3.085,0.179 -4.368,-0.944 C 3.542,0.946 0.964,-0.163 0,0"
           id="path26271"
           style="fill:#f68194;fill-opacity:1;fill-rule:nonzero;stroke:none" />
      </g>
      <g
         transform="translate(451.37331,173.09309)"
         id="g26273">
        <path
           d="m 0,0 c 0,0 -1.212,-2.358 8.093,-0.753 l 4.492,-2.567 c 0,0 2.567,-4.814 2.567,-8.343 l 0,-1.607 c 0,0 -5.776,-2.245 -5.776,-4.81 l -0.05,-6.829 6.147,-2.477 c 0,0 -3.624,-9.055 -10.042,-10.981 0,0 -6.964,-0.252 -8.57,3.601 0,0 -4.493,23.745 -1.283,30.161 0,0 3.138,3.642 4.422,4.605"
           id="path26275"
           style="fill:#d4dcf0;fill-opacity:1;fill-rule:nonzero;stroke:none" />
      </g>
      <g
         transform="translate(464.60001,183.7318)"
         id="g26277">
        <path
           d="m 0,0 c 0,-4.519 -3.664,-8.182 -8.182,-8.182 -4.52,0 -8.183,3.663 -8.183,8.182 0,4.519 3.663,8.182 8.183,8.182 C -3.664,8.182 0,4.519 0,0"
           id="path26279"
           style="fill:#fce6b2;fill-opacity:1;fill-rule:nonzero;stroke:none" />
      </g>
      <g
         transform="translate(493.8002,210.8474)"
         id="g26281">
        <path
           d="m 0,0 c 0,-5.495 -4.453,-9.948 -9.947,-9.948 -5.493,0 -9.948,4.453 -9.948,9.948 0,5.493 4.455,9.947 9.948,9.947 C -4.453,9.947 0,5.493 0,0"
           id="path26283"
           style="fill:#fce6b2;fill-opacity:1;fill-rule:nonzero;stroke:none" />
      </g>
      <g
         transform="translate(537.08279,212.6124)"
         id="g26285">
        <path
           d="m 0,0 c 0,-6.468 -5.244,-11.713 -11.711,-11.713 -6.471,0 -11.713,5.245 -11.713,11.713 0,6.467 5.242,11.712 11.713,11.712 C -5.244,11.712 0,6.467 0,0"
           id="path26287"
           style="fill:#fce6b2;fill-opacity:1;fill-rule:nonzero;stroke:none" />
      </g>
      <g
         transform="translate(476.1525,201.3806)"
         id="g26289">
        <path
           d="m 0,0 c 0,0 -9.307,-2.085 -11.392,-5.455 0,0 5.937,-4.492 6.097,-6.579 l -1.604,-6.899 -1.124,-0.965 4.493,-1.441 2.084,-2.246 c 0,0 11.714,1.284 16.849,1.284 l -1.283,8.342 c 0,0 1.923,7.06 3.848,7.861 0,0 -2.245,4.013 -7.38,5.135 l 0.163,-8.023 c 0,0 -2.25,-5.455 -5.618,-2.567 l -2.728,3.691 c 0,0 -2.725,3.85 -2.405,7.862"
           id="path26291"
           style="fill:#a9cce9;fill-opacity:1;fill-rule:nonzero;stroke:none" />
      </g>
      <g
         transform="translate(452.72591,176.6714)"
         id="g26293">
        <path
           d="m 0,0 c 0,0 -1.442,-6.097 -3.207,-6.256 l 10.589,0 c 0,0 -1.765,3.851 0.158,7.861 L 2.73,1.444 1.124,0.963 0,0 z"
           id="path26295"
           style="fill:#fce6b2;fill-opacity:1;fill-rule:nonzero;stroke:none" />
      </g>
      <g
         transform="translate(466.3651,195.44411)"
         id="g26297">
        <path
           d="m 0,0 c 0,0 -1.284,-11.071 -2.889,-12.676 0,0 -3.209,-5.775 -0.64,-5.775 l 4.331,0 1.927,-1.603 2.725,0.16 2.086,0.48 0.801,1.765 -1.443,1.605 -2.405,1.125 -2.729,0.958 1.124,0.965 c 0,0 1.605,2.407 1.444,9.143 L 0.96,-0.163 0,0 z"
           id="path26299"
           style="fill:#fce6b2;fill-opacity:1;fill-rule:nonzero;stroke:none" />
      </g>
      <g
         transform="translate(495.7251,200.89909)"
         id="g26301">
        <path
           d="m 0,0 -8.343,-1.283 -3.688,-4.974 1.762,-2.567 3.53,0.962 2.569,3.209 c 0.802,0 3.21,1.285 3.21,1.285 l 0,-2.569 -0.645,0.32 -4.169,-5.776 7.7,-10.587 1.603,-0.803 1.125,0.641 0.802,2.726 0.803,4.013 -0.962,4.173 -2.087,4.01 -1.445,4.333 c 0,0 0,2.887 -1.765,2.887"
           id="path26303"
           style="fill:#fce6b2;fill-opacity:1;fill-rule:nonzero;stroke:none" />
      </g>
      <g
         transform="translate(479.03931,203.46629)"
         id="g26305">
        <path
           d="m 0,0 -0.642,-1.925 -3.368,-0.963 2.888,-9.466 4.974,-3.209 3.689,1.925 1.765,2.407 0.162,3.691 -1.125,2.726 -0.802,1.124 -0.16,3.529 C 7.381,-0.161 4.493,4.012 0,0"
           id="path26307"
           style="fill:#fce6b2;fill-opacity:1;fill-rule:nonzero;stroke:none" />
      </g>
      <g
         transform="translate(544.0195,131.2692)"
         id="g26309">
        <path
           d="m 0,0 -5.136,-3.051 c 0,0 -2.405,-1.283 -2.246,-5.613 l 3.37,-34.657"
           id="path26311"
           style="fill:none;stroke:#c1c0c1;stroke-width:2.24099994;stroke-linecap:round;stroke-linejoin:miter;stroke-miterlimit:4;stroke-opacity:1;stroke-dasharray:none" />
      </g>
      <g
         transform="translate(558.6196,134.157)"
         id="g26313">
        <path
           d="m 0,0 c 0,0 6.257,1.442 6.417,-2.249 l 6.75,-30.944"
           id="path26315"
           style="fill:none;stroke:#c1c0c1;stroke-width:2.24099994;stroke-linecap:round;stroke-linejoin:miter;stroke-miterlimit:4;stroke-opacity:1;stroke-dasharray:none" />
      </g>
      <g
         transform="translate(464.92171,168.4872)"
         id="g26317">
        <path
           d="m 0,0 c 0,0 26.31,-5.133 63.053,-2.084 l 7.219,1.927"
           id="path26319"
           style="fill:none;stroke:#231f20;stroke-width:1.12100005;stroke-linecap:butt;stroke-linejoin:miter;stroke-miterlimit:4;stroke-opacity:1;stroke-dasharray:none" />
      </g>
      <g
         transform="translate(532.7888,146.1877)"
         id="g26321">
        <path
           d="m 0,0 -2.73,-3.208 -5.133,-0.321 -5.133,0.159 -3.212,-0.159 -2.403,-1.605 -1.927,-2.728 1.445,-14.919 -0.465,-6.152 0.828,-5.077 8.46,0.158 1.927,0.55 -0.321,5.87 -0.965,11.869 -0.8,4.493 3.368,1.442 3.371,0.163 4.974,-1.283 5.454,-1.282 4.652,0 4.01,3.526 -0.318,6.42 -1.124,3.368 -9.787,0 L 0,0 z"
           id="path26323"
           style="fill:#6358b1;fill-opacity:1;fill-rule:nonzero;stroke:none" />
      </g>
      <g
         transform="translate(560.70531,140.4131)"
         id="g26325">
        <path
           d="M 0,0 2.246,-18.452"
           id="path26327"
           style="fill:none;stroke:#c1c0c1;stroke-width:2.24099994;stroke-linecap:round;stroke-linejoin:miter;stroke-miterlimit:4;stroke-opacity:1;stroke-dasharray:none" />
      </g>
      <g
         transform="translate(436.0412,175.87041)"
         id="g26329">
        <path
           d="m 0,0 c 0,0 4.172,-3.208 9.626,-3.208 0,0 1.284,0.641 1.284,-4.175 l 3.529,-15.722 c 0,0 1.926,-10.587 -0.64,-15.721 0,0 -5.136,-4.814 3.529,-5.456 0,0 -7.059,-0.964 -15.403,10.911 0,0 -0.758,2.616 1.131,4.858 0,0 2.123,3.658 -0.166,12.467 0,0 -1.929,5.778 -2.89,13.157 L 0,0 z"
           id="path26331"
           style="fill:#cd8c2b;fill-opacity:1;fill-rule:nonzero;stroke:none" />
      </g>
      <g
         transform="translate(548.5106,189.34669)"
         id="g26333">
        <path
           d="m 0,0 c 0,-4.962 -4.024,-8.985 -8.985,-8.985 -4.962,0 -8.984,4.023 -8.984,8.985 0,4.962 4.022,8.986 8.984,8.986 C -4.024,8.986 0,4.962 0,0"
           id="path26335"
           style="fill:#fce6b2;fill-opacity:1;fill-rule:nonzero;stroke:none" />
      </g>
      <g
         transform="translate(504.2606,176.6342)"
         id="g26337">
        <path
           d="m 0,0 c 0,-0.652 -4.65,-1.18 -10.389,-1.18 -5.738,0 -10.389,0.528 -10.389,1.18 0,0.652 4.651,1.18 10.389,1.18 C -4.65,1.18 0,0.652 0,0"
           id="path26339"
           style="fill:#ffffff;fill-opacity:1;fill-rule:nonzero;stroke:none" />
      </g>
      <g
         transform="translate(488.6768,171.9124)"
         id="g26341">
        <path
           d="m 0,0 c 0,-0.652 -4.65,-1.18 -10.389,-1.18 -5.736,0 -10.387,0.528 -10.387,1.18 0,0.652 4.651,1.181 10.387,1.181 C -4.65,1.181 0,0.652 0,0"
           id="path26343"
           style="fill:#ffffff;fill-opacity:1;fill-rule:nonzero;stroke:none" />
      </g>
      <g
         transform="translate(523.147,170.49519)"
         id="g26345">
        <path
           d="m 0,0 c 0,-0.652 -4.65,-1.181 -10.389,-1.181 -5.736,0 -10.386,0.529 -10.386,1.181 0,0.652 4.65,1.182 10.386,1.182 C -4.65,1.182 0,0.652 0,0"
           id="path26347"
           style="fill:#ffffff;fill-opacity:1;fill-rule:nonzero;stroke:none" />
      </g>
      <g
         transform="translate(527.3983,177.1058)"
         id="g26349">
        <path
           d="m 0,0 c 0,-0.65 -4.651,-1.18 -10.389,-1.18 -5.737,0 -10.387,0.53 -10.387,1.18 0,0.652 4.65,1.181 10.387,1.181 C -4.651,1.181 0,0.652 0,0"
           id="path26351"
           style="fill:#ffffff;fill-opacity:1;fill-rule:nonzero;stroke:none" />
      </g>
      <g
         transform="translate(519.9528,181.48309)"
         id="g26353">
        <path
           d="m 0,0 1.926,1.766 2.405,0.642 2.889,0 1.766,-1.281 0,-1.445 -0.965,-2.408 -1.604,-0.159 -1.925,0.48 -1.887,1.097 -2.124,-3.896 -0.964,-2.174 -0.69,-1.602 1.495,0.159 0.319,-3.371 -0.159,-2.245 -3.854,0 -2.403,0 -0.964,1.285 0,2.243 0.642,2.247 4.01,6.257 L 0,0 z"
           id="path26355"
           style="fill:#fce6b2;fill-opacity:1;fill-rule:nonzero;stroke:none" />
      </g>
      <g
         transform="translate(537.1956,179.58549)"
         id="g26357">
        <path
           d="m 0,0 -4.73,-1.31 -4.813,-3.529 -6.257,-1.283 -2.406,-0.643 0.161,-4.49 0.16,-1.767 5.134,0 4.332,0 1.283,-2.727 1.764,-7.38 0.803,-5.936 0.322,-3.531 -0.948,-1.522 5.549,-1.296 4.959,-0.591 2.953,-0.439 4.173,0.801 3.208,2.565 1.124,8.505 1.124,9.946 -1.285,5.615 -2.246,5.135 -3.69,3.37 L 5.195,1.298 1.654,0.825 0,0 z"
           id="path26359"
           style="fill:#aa91d0;fill-opacity:1;fill-rule:nonzero;stroke:none" />
      </g>
      <g
         transform="translate(459.991,155.9751)"
         id="g26361">
        <path
           d="m 0,0 3.188,-3.068 c 0,0 3.749,-3.096 5.194,-3.897 0,0 3.186,3.777 6.61,15.111 0,0 1.03,2.432 1.063,2.479 0.684,0.986 4.367,1.772 1.77,2.479 -0.717,0.196 -3.918,0.132 -4.365,-0.706 L 13.22,10.625 8.027,-2.715 4.18,2.677 2.602,2.452 0.261,2.246 -0.945,1.77 0,0 z"
           id="path26363"
           style="fill:#fce6b2;fill-opacity:1;fill-rule:nonzero;stroke:none" />
      </g>
      <g
         transform="translate(507.7601,97.895294)"
         id="g26365">
        <path
           d="m 0,0 5.614,30.645 c 0,0 -0.16,6.095 4.171,6.738 l 6.257,0"
           id="path26367"
           style="fill:none;stroke:#c1c0c1;stroke-width:2.24099994;stroke-linecap:round;stroke-linejoin:miter;stroke-miterlimit:4;stroke-opacity:1;stroke-dasharray:none" />
      </g>
      <g
         transform="translate(545.57671,137.79559)"
         id="g26369">
        <path
           d="m 0,0 -2.242,-2.715 -5.313,-0.354 c 0,0 -21.919,5.366 -23.685,1.514 l 4.012,-0.161 3.208,-0.48 3.851,-0.321 2.085,-1.444 5.134,-1.605 4.333,-1.926 5.613,-0.64 4.334,0 c 0,0 12.034,2.887 13.317,3.69 l 2.245,2.726 c 0,0 1.444,2.568 3.852,2.568 0,0 2.085,3.209 -0.161,5.936 0,0 -1.604,5.777 -0.16,10.75 0,0 3.849,16.847 2.085,19.413 L 21.706,37.431 20.103,36.15 16.732,35.185 14.005,34.866 9.352,34.385 6.786,34.544 4.86,33.423 3.254,28.929 1.49,19.303 -0.275,11.923 -0.755,5.826 0,0 z"
           id="path26371"
           style="fill:#cd8c2b;fill-opacity:1;fill-rule:nonzero;stroke:none" />
      </g>
      <g
         transform="translate(567.2832,175.227)"
         id="g26373">
        <path
           d="m 0,0 c 0,0 -3.691,-3.047 -14.92,-2.887 0,0 -3.211,-0.963 -3.532,-3.369 l -2.886,-15.724 c 0,0 -2.407,-7.862 -1.124,-14.76 0,0 2.085,-4.173 2.727,-4.493 l 1.604,0.163 c 0,0 2.246,-1.126 0.159,-2.409 0,0 -6.095,-2.406 -8.019,-0.961 0,0 -7.06,0.64 -9.949,1.764 l -7.059,3.528 c 0,0 -8.181,2.567 -9.947,0.162 0,0 0,-1.283 0.962,-0.962 0,0 3.209,1.603 6.257,0.321 0,0 12.195,-5.296 13.8,-5.296 0,0 9.785,-1.122 11.55,-0.64 l 3.37,1.763 0.16,2.73 -0.802,0.961 -1.445,0 -0.802,0.321 c 0,0 -3.368,3.207 -1.283,14.117 l 3.37,17.81 c 0,0 0.322,3.69 2.727,3.853 l 5.454,0.48 c 0,0 8.986,0.802 10.429,2.406 0,0 0.803,0.961 -0.801,1.122"
           id="path26375"
           style="fill:#e5991d;fill-opacity:1;fill-rule:nonzero;stroke:none" />
      </g>
      <g
         transform="translate(436.02699,175.45461)"
         id="g26377">
        <path
           d="m 0,0 c 0,0 2.832,-3.19 9.561,-3.424 0,0 0.827,-0.118 0.827,-1.652 l 3.423,-16.646 c 0,0 1.77,-9.21 0,-15.819 0,0 -5.548,-6.375 2.715,-6.495 0,0 8.737,-2.713 25.263,3.544 0,0 2.481,0.236 4.84,-1.18 0,0 0.827,-0.827 0.827,-1.299 0,-1.299 0.825,-0.473 0.825,-0.473 0,0 -0.224,1.354 -1.532,3.306 0,0 -1.891,1.298 -6.375,0.117 0,0 -6.834,-2.367 -10.271,-2.95 0,0 -6.967,-2.008 -13.93,-0.353 0,0 -7.084,-0.473 -1.772,5.783 0,0 2.361,7.673 -0.118,16.526 0,0 -2.951,13.458 -3.659,17 0,0 -0.236,2.125 -2.123,1.299 0,0 -7.526,1.778 -8.486,3.132 C 0.015,0.416 -0.591,0.352 0,0"
           id="path26379"
           style="fill:#e7a131;fill-opacity:1;fill-rule:nonzero;stroke:none" />
      </g>
      <g
         transform="translate(483.43291,220.3475)"
         id="g26381">
        <path
           d="m 0,0 c 0,0 -2.629,-8.926 -9.849,-11.908 0,0 -1.922,9.397 9.849,11.908"
           id="path26383"
           style="fill:#a47343;fill-opacity:1;fill-rule:nonzero;stroke:none" />
      </g>
      <g
         transform="translate(483.43291,220.3475)"
         id="g26385">
        <path
           d="m 0,0 c 0,0 -2.629,-8.926 -9.849,-11.908 0,0 -1.922,9.397 9.849,11.908 z"
           id="path26387"
           style="fill:none;stroke:#a47343;stroke-width:1.12100005;stroke-linecap:butt;stroke-linejoin:miter;stroke-miterlimit:10;stroke-opacity:1;stroke-dasharray:none" />
      </g>
      <g
         transform="translate(484.6454,220.4366)"
         id="g26389">
        <path
           d="M 0,0 C 0,0 -0.944,-10.119 9.939,-11.18 9.939,-11.18 10.33,-1.173 0,0"
           id="path26391"
           style="fill:#a47343;fill-opacity:1;fill-rule:nonzero;stroke:none" />
      </g>
      <g
         transform="translate(484.6454,220.4366)"
         id="g26393">
        <path
           d="M 0,0 C 0,0 -0.944,-10.119 9.939,-11.18 9.939,-11.18 10.33,-1.173 0,0 z"
           id="path26395"
           style="fill:none;stroke:#a47343;stroke-width:1.12100005;stroke-linecap:butt;stroke-linejoin:miter;stroke-miterlimit:10;stroke-opacity:1;stroke-dasharray:none" />
      </g>
      <g
         transform="translate(458.3763,192.6295)"
         id="g26397">
        <path
           d="m 0,0 c 0,0 0.524,-20.303 3.116,-25.486 0,0 -10.155,-2.172 -12.677,4.062 0,0 -3.676,12.513 -0.295,17.298 0,0 2.946,5.994 9.856,4.126"
           id="path26399"
           style="fill:#a47343;fill-opacity:1;fill-rule:nonzero;stroke:none" />
      </g>
      <g
         transform="translate(458.3763,192.6295)"
         id="g26401">
        <path
           d="m 0,0 c 0,0 0.524,-20.303 3.116,-25.486 0,0 -10.155,-2.172 -12.677,4.062 0,0 -3.676,12.513 -0.295,17.298 0,0 2.946,5.994 9.856,4.126 z"
           id="path26403"
           style="fill:none;stroke:#a47343;stroke-width:1.12100005;stroke-linecap:butt;stroke-linejoin:miter;stroke-miterlimit:10;stroke-opacity:1;stroke-dasharray:none" />
      </g>
      <g
         transform="translate(517.48289,223.36929)"
         id="g26405">
        <path
           d="m 0,0 -0.338,-0.676 0,-0.787 0,-0.676 0.113,-0.451 0.562,0.114 0.901,0.337 0.563,0.225 c 0,0 0.114,0.337 0.451,0.337 l 1.463,0 0.451,0.226 0.788,0 1.351,0 0.675,-0.563 0.789,-0.562 0.45,-0.789 0.676,-0.451 0.337,-0.901 0.901,-0.112 c 0,0 0.339,-0.674 0.339,-1.126 0,-0.45 0.224,-1.689 0.224,-1.689 l 0.675,-0.113 c 0,0 0.677,-0.224 1.014,-0.224 0.338,0 0.9,-0.113 0.9,-0.113 l 0.901,-0.225 1.802,-0.226 c 0,0 0.675,-0.112 1.125,-0.112 l 1.689,0 0.338,0.451 0,1.013 0,1.238 c 0,0 -0.112,0.337 -0.449,0.676 -0.339,0.338 -0.789,0.901 -0.789,0.901 l -0.45,1.351 -0.113,0.451 c 0,0 -10e-4,0 -0.451,0.449 -0.449,0.45 -0.451,0.564 -1.013,0.789 -0.563,0.225 -1.012,0.337 -1.237,0.675 -0.227,0.338 -0.453,0.788 -0.79,1.013 -0.336,0.226 -0.9,0.676 -0.9,0.676 0,0 -0.112,0.113 -0.563,0.225 -0.451,0.112 0.226,0.112 -1.014,0.226 -1.238,0.112 -0.899,0.112 -2.139,0.112 l -2.026,0 c -0.677,0 -0.789,-0.112 -1.69,-0.112 l -1.688,0 c -0.339,0 -0.113,0.224 -0.901,0 C 2.139,1.351 2.028,1.351 1.238,1.238 0.449,1.126 0,0 0,0"
           id="path26407"
           style="fill:#6f4324;fill-opacity:1;fill-rule:nonzero;stroke:none" />
      </g>
      <g
         transform="translate(534.7092,196.685)"
         id="g26409">
        <path
           d="m 0,0 0.901,-1.351 1.801,-2.14 c 0,0 0.113,-0.225 0,-2.364 -0.112,-2.139 -0.901,-3.04 -0.901,-3.04 l -0.336,-2.251 1.125,-0.901 0.901,-0.789 c 0,0 1.238,-0.562 1.575,-0.562 l 0.789,0 2.815,0 1.126,0 1.575,0.113 2.027,1.687 0.563,1.577 c 0,0 0.338,1.126 0.338,1.464 l 0,1.914 -0.675,3.04 -0.339,0.9 -1.125,1.577 -0.675,0.901 c 0,0 -10e-4,0.225 -0.451,0.45 C 10.584,0.45 9.909,1.013 9.345,1.126 8.782,1.238 8.782,1.577 8.219,1.577 7.657,1.577 6.869,1.801 6.305,1.801 5.742,1.801 5.13,1.493 4.817,1.647 4.505,1.801 4.279,1.914 3.491,1.914 l -1.352,0 c 0,0 -0.901,0.113 -1.238,0 C 0.563,1.801 0,0 0,0"
           id="path26411"
           style="fill:#6f4324;fill-opacity:1;fill-rule:nonzero;stroke:none" />
      </g>
    </g>
  </g>
</svg>
